<svg width="32" height="32" viewBox="0 0 32 32" fill="none" xmlns="http://www.w3.org/2000/svg">
<path fill-rule="evenodd" clip-rule="evenodd" d="M5.66797 11.3529C5.66797 5.93694 10.3633 1.66675 16.0013 1.66675C21.6394 1.66675 26.3346 5.93694 26.3346 11.3529C26.3346 16.4345 23.1841 22.4001 18.101 24.5724C16.7666 25.1426 15.236 25.1426 13.9016 24.5724C8.81849 22.4001 5.66797 16.4345 5.66797 11.3529ZM16.0013 3.66675C11.33 3.66675 7.66797 7.17443 7.66797 11.3529C7.66797 15.7907 10.4752 20.9332 14.6875 22.7333C15.52 23.089 16.4826 23.089 17.3151 22.7333C21.5274 20.9332 24.3346 15.7907 24.3346 11.3529C24.3346 7.17443 20.6726 3.66675 16.0013 3.66675ZM16.0013 10.3334C15.0808 10.3334 14.3346 11.0796 14.3346 12.0001C14.3346 12.9206 15.0808 13.6667 16.0013 13.6667C16.9218 13.6667 17.668 12.9206 17.668 12.0001C17.668 11.0796 16.9218 10.3334 16.0013 10.3334ZM12.3346 12.0001C12.3346 9.97504 13.9763 8.33341 16.0013 8.33341C18.0263 8.33341 19.668 9.97504 19.668 12.0001C19.668 14.0251 18.0263 15.6667 16.0013 15.6667C13.9763 15.6667 12.3346 14.0251 12.3346 12.0001ZM4.79518 19.9955C5.16589 20.4049 5.13453 21.0373 4.72514 21.408C3.96822 22.0934 3.66797 22.7495 3.66797 23.3334C3.66797 24.3517 4.63332 25.6065 6.98358 26.6641C9.23997 27.6795 12.4273 28.3334 16.0013 28.3334C19.5753 28.3334 22.7626 27.6795 25.019 26.6641C27.3693 25.6065 28.3346 24.3517 28.3346 23.3334C28.3346 22.7495 28.0344 22.0934 27.2775 21.408C26.8681 21.0373 26.8367 20.4049 27.2074 19.9955C27.5781 19.5861 28.2105 19.5548 28.6199 19.9255C29.6372 20.8467 30.3346 22.0015 30.3346 23.3334C30.3346 25.6289 28.3152 27.374 25.8398 28.488C23.2704 29.6442 19.7911 30.3334 16.0013 30.3334C12.2115 30.3334 8.73217 29.6442 6.16285 28.488C3.68739 27.374 1.66797 25.6289 1.66797 23.3334C1.66797 22.0015 2.36537 20.8467 3.38271 19.9255C3.79209 19.5548 4.42448 19.5861 4.79518 19.9955Z" fill="#282828"/>
</svg>
