<svg width="92" height="76" viewBox="0 0 92 76" fill="none" xmlns="http://www.w3.org/2000/svg">
<path opacity="0.4" d="M68.7864 2.00511L68.8062 2.00589C74.8127 2.24352 80.0993 4.57527 83.9023 8.77739C87.6966 12.9699 89.8789 18.8715 89.9935 26.0299L68.7864 2.00511ZM68.7864 2.00511L68.7667 2.00471M68.7864 2.00511L68.7667 2.00471M68.7667 2.00471C56.5968 1.76398 47.244 10.7562 47.244 23.4416C47.244 27.7234 48.2973 31.0628 49.939 33.7493C51.5649 36.41 53.706 38.3274 55.7187 39.8575C56.5508 40.4901 57.3866 41.0748 58.1503 41.6091C58.3038 41.7165 58.4543 41.8218 58.6013 41.9251C59.5031 42.5585 60.2706 43.1133 60.9087 43.6619C62.1987 44.7708 62.614 45.5609 62.614 46.3733C62.614 48.4752 61.955 50.6148 60.9315 52.8054C60.0863 54.6146 59.0539 56.3385 58.0252 58.0565C57.7978 58.4361 57.5707 58.8154 57.3458 59.1952C56.1675 61.1853 54.9659 63.3206 54.5312 65.3296C54.3043 66.3783 54.2571 67.5076 54.6016 68.6292C54.9531 69.7736 55.6615 70.7433 56.6686 71.5336L56.6856 71.547M68.7667 2.00471L56.6856 71.547M56.6856 71.547L56.703 71.56M56.6856 71.547L56.703 71.56M56.703 71.56C59.7509 73.8465 63.6685 73.155 67.17 71.2839M56.703 71.56L67.17 71.2839M67.17 71.2839C70.7473 69.3724 74.4892 65.9603 77.8591 61.6012M67.17 71.2839L77.8591 61.6012M77.8591 61.6012C84.6051 52.8752 90.2185 39.8859 89.9935 26.0304L77.8591 61.6012ZM23.5621 2.00589L23.542 2.0051L23.5219 2.0047C11.1218 1.76412 2 10.7707 2 23.4416C2 27.7234 3.0533 31.0628 4.69498 33.7493C6.32089 36.41 8.46192 38.3274 10.4746 39.8575C11.3068 40.4901 12.1425 41.0748 12.9063 41.6091C13.0597 41.7165 13.2102 41.8218 13.3572 41.9251C14.259 42.5585 15.0265 43.1133 15.6646 43.6619C16.9546 44.7708 17.37 45.5609 17.37 46.3733C17.37 48.4752 16.711 50.6148 15.6875 52.8054C14.8422 54.6146 13.8099 56.3385 12.7811 58.0564C12.5538 58.436 12.3267 58.8154 12.1017 59.1952C10.9235 61.1853 9.72184 63.3206 9.28712 65.3296C9.06022 66.3783 9.01302 67.5076 9.35753 68.6292C9.70905 69.7736 10.4174 70.7433 11.4245 71.5336L11.4318 71.5392L11.439 71.5449C14.4459 73.8599 18.346 73.1475 21.8078 71.2802C25.3529 69.3679 29.0731 65.9559 32.4281 61.598C39.1448 52.8737 44.7581 39.8854 44.5329 26.0299C44.4186 18.8855 42.2984 12.9859 38.5606 8.78923C34.8102 4.5784 29.572 2.24366 23.5621 2.00589Z" stroke="url(#paint0_linear_831_948)" stroke-width="4"/>
<defs>
<linearGradient id="paint0_linear_831_948" x1="62.2679" y1="89.3588" x2="27.7824" y2="-1.51651" gradientUnits="userSpaceOnUse">
<stop stop-color="#C07C47"/>
<stop offset="1" stop-color="#F6D58D"/>
</linearGradient>
</defs>
</svg>
