<svg width="92" height="76" viewBox="0 0 92 76" fill="none" xmlns="http://www.w3.org/2000/svg">
<path opacity="0.4" d="M23.2136 73.9949L23.1938 73.9941C17.1873 73.7565 11.9007 71.4247 8.09772 67.2226C4.30343 63.0301 2.12109 57.1285 2.00654 49.9701L23.2136 73.9949ZM23.2136 73.9949L23.2333 73.9953M23.2136 73.9949L23.2333 73.9953M23.2333 73.9953C35.4032 74.236 44.756 65.2438 44.756 52.5584C44.756 48.2766 43.7027 44.9372 42.061 42.2507C40.4351 39.59 38.294 37.6726 36.2813 36.1425C35.4492 35.5099 34.6134 34.9252 33.8497 34.3909C33.6962 34.2835 33.5457 34.1782 33.3987 34.0749C32.4969 33.4415 31.7294 32.8867 31.0913 32.3381C29.8013 31.2292 29.386 30.4391 29.386 29.6267C29.386 27.5248 30.045 25.3852 31.0685 23.1946C31.9137 21.3854 32.9461 19.6615 33.9748 17.9435C34.2022 17.5639 34.4293 17.1846 34.6542 16.8048C35.8325 14.8147 37.0341 12.6794 37.4688 10.6704C37.6957 9.62173 37.7429 8.49244 37.3984 7.37084C37.0469 6.22645 36.3385 5.25667 35.3314 4.46643L35.3144 4.45303M23.2333 73.9953L35.3144 4.45303M35.3144 4.45303L35.297 4.44M35.3144 4.45303L35.297 4.44M35.297 4.44C32.2491 2.15354 28.3315 2.84505 24.83 4.71611M35.297 4.44L24.83 4.71611M24.83 4.71611C21.2527 6.62759 17.5108 10.0397 14.1409 14.3988M24.83 4.71611L14.1409 14.3988M14.1409 14.3988C7.39492 23.1248 1.78154 36.1141 2.00653 49.9696L14.1409 14.3988ZM68.4379 73.9941L68.458 73.9949L68.4781 73.9953C80.8782 74.2359 90 65.2293 90 52.5584C90 48.2766 88.9467 44.9372 87.305 42.2507C85.6791 39.59 83.5381 37.6726 81.5254 36.1425C80.6932 35.5099 79.8575 34.9252 79.0937 34.3909C78.9403 34.2835 78.7898 34.1782 78.6428 34.0749C77.741 33.4415 76.9735 32.8867 76.3354 32.3381C75.0454 31.2292 74.63 30.4391 74.63 29.6267C74.63 27.5248 75.289 25.3852 76.3125 23.1946C77.1578 21.3854 78.1901 19.6615 79.2189 17.9436C79.4462 17.564 79.6733 17.1846 79.8983 16.8048C81.0765 14.8147 82.2782 12.6794 82.7129 10.6704C82.9398 9.62173 82.987 8.49244 82.6425 7.37084C82.291 6.22645 81.5826 5.25667 80.5755 4.46643L80.5682 4.46075L80.561 4.45514C77.5541 2.1401 73.654 2.85253 70.1922 4.71982C66.6471 6.63209 62.9269 10.0441 59.5719 14.402C52.8552 23.1263 47.2419 36.1146 47.4671 49.9701C47.5814 57.1145 49.7016 63.0141 53.4394 67.2108C57.1898 71.4216 62.428 73.7563 68.4379 73.9941Z" stroke="url(#paint0_linear_927_1011)" stroke-width="4"/>
<defs>
<linearGradient id="paint0_linear_927_1011" x1="29.7321" y1="-13.3588" x2="64.2176" y2="77.5165" gradientUnits="userSpaceOnUse">
<stop stop-color="#C07C47"/>
<stop offset="1" stop-color="#F6D58D"/>
</linearGradient>
</defs>
</svg>
