<svg viewBox="0 0 25 25" fill="none" xmlns="http://www.w3.org/2000/svg">
<rect width="100%" height="100%" rx="2" fill="#fff"/>
<path d="M2 4.32323C2 3.64982 2.23649 3.09426 2.70946 2.65657C3.18243 2.21885 3.7973 2 4.55405 2C5.2973 2 5.89864 2.21547 6.35811 2.64646C6.83107 3.09091 7.06757 3.67002 7.06757 4.38384C7.06757 5.0303 6.83784 5.56901 6.37838 6C5.90541 6.44444 5.28378 6.66667 4.51351 6.66667H4.49324C3.74999 6.66667 3.14866 6.44444 2.68919 6C2.22972 5.55556 2 4.99663 2 4.32323ZM2.26351 22V9.50505C2.26351 8.95277 2.71123 8.50505 3.26351 8.50505H5.76351C6.3158 8.50505 6.76351 8.95277 6.76351 9.50505V22H2.26351ZM9.25676 22H13.7568V14.4646C13.7568 13.9933 13.8108 13.6296 13.9189 13.3737C14.1081 12.9158 14.3953 12.5286 14.7804 12.2121C15.1655 11.8956 15.6486 11.7374 16.2297 11.7374C17.7433 11.7374 18.5 12.7542 18.5 14.7879V22H23V14.2626C23 12.2694 22.527 10.7576 21.5811 9.72727C20.6351 8.69697 19.3851 8.18182 17.8311 8.18182C16.0878 8.18182 14.7297 8.92929 13.7568 10.4242V10.4646H13.7365L13.7568 10.4242V9.50505C13.7568 8.95277 13.309 8.50505 12.7568 8.50505H10.3214C9.74452 8.50505 9.27686 8.99199 9.28417 9.56884C9.29292 10.26 9.2973 11.2454 9.2973 12.5253C9.2973 14.7744 9.28378 17.9326 9.25676 22Z" fill="white"/>
</svg>
