<svg viewBox="0 0 52 52" fill="none" xmlns="http://www.w3.org/2000/svg">
<path fill-rule="evenodd" clip-rule="evenodd" d="M24.7952 14.132C25.0876 13.7501 25.6186 13.1983 26.4708 13.1983C27.323 13.1983 27.854 13.7501 28.1465 14.132C28.4256 14.4964 28.7067 15.001 28.9949 15.5183L29.2012 15.8884C29.24 15.9579 29.2704 16.0125 29.2971 16.0593C29.3435 16.0702 29.3975 16.0824 29.465 16.0977L29.8689 16.1891C30.4258 16.3149 30.9791 16.44 31.4039 16.6074C31.873 16.7922 32.5088 17.1522 32.7538 17.9402C32.9945 18.7143 32.6908 19.37 32.4255 19.7914C32.1799 20.1814 31.8068 20.6176 31.4247 21.0641L31.1518 21.3833C31.0933 21.4518 31.0491 21.5034 31.0119 21.5481C31.017 21.6098 31.0239 21.6817 31.0333 21.7779L31.0743 22.2016C31.1324 22.7994 31.1885 23.3771 31.1679 23.8392C31.1463 24.3237 31.03 25.0572 30.3724 25.5564C29.694 26.0715 28.9447 25.9592 28.4696 25.8231C28.0318 25.6976 27.5145 25.4593 26.9935 25.2192L26.615 25.0449C26.5582 25.0188 26.5115 24.9973 26.4708 24.9789C26.4301 24.9973 26.3835 25.0188 26.3266 25.0449L25.9482 25.2192C25.4272 25.4593 24.9099 25.6976 24.4721 25.8231C23.9969 25.9592 23.2477 26.0715 22.5693 25.5564C21.9116 25.0572 21.7953 24.3237 21.7737 23.8392C21.7532 23.3771 21.8093 22.7994 21.8673 22.2017L21.9084 21.7779C21.9177 21.6817 21.9246 21.6098 21.9297 21.5481C21.8925 21.5034 21.8484 21.4518 21.7898 21.3833L21.5169 21.0642C21.1349 20.6176 20.7617 20.1814 20.5162 19.7914C20.2509 19.37 19.9471 18.7143 20.1878 17.9402C20.4329 17.1522 21.0686 16.7922 21.5377 16.6074C21.9625 16.44 22.5159 16.3149 23.0727 16.1891L23.4766 16.0977C23.5441 16.0824 23.5981 16.0702 23.6445 16.0593C23.6712 16.0125 23.7017 15.9579 23.7404 15.8884L23.9468 15.5182C24.2349 15.001 24.516 14.4964 24.7952 14.132ZM26.4708 16.2295C26.3721 16.4004 26.2623 16.5973 26.1329 16.8294L25.9659 17.129L25.9279 17.198C25.7945 17.4419 25.5736 17.8459 25.2053 18.1255C24.8293 18.411 24.377 18.5092 24.1125 18.5666L24.0389 18.5828L23.7146 18.6562C23.4171 18.7235 23.1747 18.7784 22.9675 18.8305C23.1023 18.9964 23.2774 19.2025 23.5051 19.4688L23.7262 19.7273L23.7771 19.7862C23.9604 19.9974 24.2564 20.3384 24.3933 20.7785C24.5286 21.2135 24.4819 21.6615 24.4525 21.9442L24.4444 22.0236L24.411 22.3685C24.38 22.6883 24.3559 22.9435 24.3399 23.1511C24.5169 23.0731 24.7182 22.9805 24.9574 22.8704L25.261 22.7306L25.3296 22.6985C25.5733 22.5835 25.9975 22.3835 26.4708 22.3835C26.9442 22.3835 27.3683 22.5835 27.612 22.6985L27.6806 22.7306L27.9842 22.8704C28.2234 22.9805 28.4248 23.0731 28.6018 23.1511C28.5857 22.9435 28.5617 22.6883 28.5307 22.3685L28.4972 22.0236L28.4891 21.9442C28.4597 21.6615 28.4131 21.2135 28.5483 20.7785C28.6852 20.3384 28.9812 19.9974 29.1645 19.7862L29.2154 19.7273L29.4365 19.4688C29.6643 19.2025 29.8394 18.9964 29.9742 18.8305C29.7669 18.7784 29.5245 18.7235 29.227 18.6562L28.9027 18.5828L28.8292 18.5666C28.5647 18.5092 28.1124 18.411 27.7363 18.1255C27.368 17.8459 27.1471 17.4419 27.0137 17.198L26.9758 17.129L26.8088 16.8294C26.6794 16.5973 26.5696 16.4004 26.4708 16.2295ZM24.3295 23.8342C24.3294 23.8343 24.329 23.8325 24.3283 23.8288L24.3295 23.8342ZM28.6122 23.8342L28.6133 23.8288C28.6126 23.8325 28.6122 23.8343 28.6122 23.8342Z" fill="white"/>
<path fill-rule="evenodd" clip-rule="evenodd" d="M18.8244 8.70927C20.7997 8.376 23.3665 8.10254 26.4711 8.10254C29.5756 8.10254 32.1425 8.376 34.1177 8.70927L34.3468 8.74772C36.0628 9.03496 37.489 9.2737 38.6042 10.6472C39.3194 11.5281 39.5502 12.4801 39.6033 13.5435L40.4385 13.8219C41.2252 14.0841 41.9147 14.3139 42.4617 14.5684C43.0531 14.8435 43.595 15.1978 44.0093 15.7727C44.4236 16.3475 44.5884 16.9737 44.6623 17.6217C44.7308 18.2211 44.7307 18.9479 44.7306 19.7771L44.7306 20.0238C44.7306 20.7063 44.7307 21.3092 44.6803 21.8133C44.6257 22.3597 44.5047 22.8909 44.2027 23.4043C43.9006 23.9177 43.4949 24.2814 43.0438 24.5945C42.6275 24.8833 42.1006 25.1761 41.504 25.5075L37.0185 27.9995C36.1023 29.8023 34.8436 31.4096 33.1126 32.5706C31.6268 33.5671 29.8478 34.1978 27.7448 34.3777V37.8281H30.1741C31.5911 37.8281 32.811 38.8282 33.0889 40.2177L33.4603 42.0746H36.6624C37.366 42.0746 37.9363 42.645 37.9363 43.3486C37.9363 44.0521 37.366 44.6225 36.6624 44.6225H16.2793C15.5757 44.6225 15.0053 44.0521 15.0053 43.3486C15.0053 42.645 15.5757 42.0746 16.2793 42.0746H19.4814L19.8527 40.2177C20.1306 38.8282 21.3506 37.8281 22.7676 37.8281H25.1969V34.3776C23.0941 34.1977 21.3153 33.567 19.8296 32.5706C18.0987 31.4097 16.8401 29.8025 15.9239 27.9999L11.4376 25.5075C10.841 25.1761 10.314 24.8833 9.89775 24.5945C9.44662 24.2814 9.04099 23.9177 8.73891 23.4043C8.43684 22.8909 8.31591 22.3597 8.2613 21.8133C8.21091 21.3091 8.21093 20.7063 8.21095 20.0238L8.21094 19.7771C8.21087 18.9479 8.21081 18.2211 8.27923 17.6217C8.35319 16.9737 8.51797 16.3475 8.93227 15.7727C9.34657 15.1978 9.88851 14.8435 10.4799 14.5684C11.0269 14.3139 11.7164 14.0841 12.503 13.8219L13.3388 13.5433C13.392 12.4799 13.6228 11.528 14.338 10.6472C15.4532 9.2737 16.8794 9.03496 18.5954 8.74772L18.8244 8.70927ZM22.0797 42.0746H30.8619L30.5905 40.7174C30.5508 40.5189 30.3765 40.376 30.1741 40.376H22.7676C22.5651 40.376 22.3909 40.5189 22.3512 40.7174L22.0797 42.0746ZM13.3952 16.2103L13.3721 16.218C12.5034 16.5075 11.954 16.6927 11.5546 16.8785C11.1848 17.0505 11.0659 17.17 10.9992 17.2624C10.9326 17.3549 10.8569 17.5055 10.8107 17.9107C10.7607 18.3484 10.7588 18.9281 10.7588 19.8438L10.7588 19.967C10.7589 20.7232 10.7603 21.1975 10.7966 21.5599C10.83 21.8941 10.885 22.0274 10.9349 22.1122C10.9847 22.1969 11.0746 22.3098 11.3504 22.5012C11.6497 22.7089 12.0636 22.9406 12.7246 23.3078L14.5348 24.3135C13.8085 21.6468 13.5168 18.7927 13.3952 16.2103ZM38.4075 24.3131C39.1337 21.6466 39.4254 18.7927 39.5469 16.2105L39.5695 16.218C40.4382 16.5075 40.9876 16.6927 41.387 16.8785C41.7567 17.0505 41.8757 17.17 41.9423 17.2624C42.009 17.3549 42.0846 17.5055 42.1309 17.9107C42.1808 18.3484 42.1828 18.9281 42.1827 19.8438L42.1827 19.967C42.1827 20.7232 42.1812 21.1975 42.145 21.5599C42.1116 21.8941 42.0566 22.0274 42.0067 22.1122C41.9569 22.1969 41.867 22.3098 41.5911 22.5012C41.2919 22.7089 40.878 22.9406 40.217 23.3078L38.4075 24.3131ZM26.4711 10.6504C23.5166 10.6504 21.0917 10.9106 19.2483 11.2217C17.1983 11.5676 16.7676 11.697 16.316 12.2532C15.8709 12.8014 15.8286 13.3199 15.92 15.6218C16.0723 19.4583 16.5784 23.5984 18.1457 26.7471C18.9194 28.3014 19.9309 29.5706 21.2488 30.4545C22.5582 31.3327 24.2475 31.883 26.4711 31.883C28.6947 31.883 30.384 31.3327 31.6933 30.4545C33.0112 29.5706 34.0228 28.3014 34.7964 26.7471C36.3638 23.5984 36.8699 19.4583 37.0222 15.6218C37.1136 13.3199 37.0713 12.8014 36.6262 12.2532C36.1745 11.697 35.7439 11.5676 33.6938 11.2217C31.8505 10.9106 29.4256 10.6504 26.4711 10.6504Z" fill="white"/>
</svg>
