<svg viewBox="0 0 113 80" fill="none" xmlns="http://www.w3.org/2000/svg">
<mask id="mask0_811_756" style="mask-type:luminance" maskUnits="userSpaceOnUse" x="0" y="0" width="113" height="80">
<path d="M113 0H0V80H113V0Z" fill="white"/>
</mask>
<g mask="url(#mask0_811_756)">
<path fill-rule="evenodd" clip-rule="evenodd" d="M55.5134 23.0343C56.0611 21.9982 57.1805 22.2092 58.261 22.8475C59.3414 23.4859 59.6676 24.9118 59.426 25.3459C59.1844 25.7799 57.759 26.171 56.6785 25.5327C55.598 24.8943 54.9658 24.0705 55.5134 23.0343ZM63.0299 20.2471C64.0258 19.6316 64.8848 20.3815 65.4928 21.4794C66.1009 22.5774 65.662 23.9724 65.2338 24.225C64.8056 24.4777 63.3788 24.0906 62.7708 22.9927C62.1628 21.8947 62.0313 20.8626 63.0272 20.2471H63.0299ZM70.349 22.4202C71.1543 20.9029 72.7918 21.2107 74.3756 22.1514C75.9595 23.0921 76.4359 25.1752 76.0829 25.8135C75.7299 26.4519 73.6401 27.023 72.0563 26.0823C70.4725 25.1416 69.545 23.9374 70.3463 22.4202H70.349ZM78.0708 13.2816C79.2251 13.0854 79.7405 14.1027 79.8921 15.3499C80.0438 16.597 79.115 17.7232 78.6238 17.7971C78.1325 17.871 76.954 16.976 76.8024 15.7289C76.6507 14.4817 76.9151 13.4765 78.0681 13.2803L78.0708 13.2816ZM69.3463 15.0542C69.9799 14.0691 71.0778 14.3756 72.0992 15.1053C73.1207 15.835 73.322 17.2824 73.0388 17.695C72.7556 18.1076 71.3073 18.367 70.2859 17.6439C69.2645 16.9209 68.7048 16.0366 69.3396 15.0515L69.3463 15.0542ZM71.9019 7.55255C72.9663 7.06471 73.726 7.91406 74.1944 9.07922C74.6629 10.2444 74.0602 11.5735 73.5998 11.767C73.1394 11.9606 71.7758 11.4055 71.3073 10.2404C70.8389 9.07519 70.8389 8.04038 71.9019 7.55255ZM59.3321 31.044C59.1978 29.8802 60.2367 29.4179 61.4877 29.3292C62.7386 29.2405 63.8151 30.2296 63.8634 30.7255C63.9117 31.2214 62.9587 32.3516 61.7064 32.4403C60.4541 32.529 59.4676 32.2038 59.3321 31.044Z" fill="#0C7155"/>
<path fill-rule="evenodd" clip-rule="evenodd" d="M77.447 33.2817C77.447 33.2817 80.4885 35.432 81.0334 38.0513C81.5784 40.6705 79.3409 48.8549 77.8121 51.3264C76.2833 53.7978 75.8364 59.285 76.0404 61.4164C76.2444 63.5478 76.9303 64.8931 76.9303 64.8931C76.9303 64.8931 73.0271 58.9167 74.2324 52.9982C75.4377 47.0796 76.4699 43.2858 76.4699 43.2858C76.4699 43.2858 70.9668 46.2168 65.6234 45.3554C60.2801 44.4939 58.6211 41.4473 58.6211 41.4473C58.6211 41.4473 66.312 46.0166 72.1372 41.2175C77.9625 36.4184 77.447 33.2885 77.447 33.2885" fill="#7F2E34"/>
<path fill-rule="evenodd" clip-rule="evenodd" d="M57.6719 28.0244C57.6719 28.0244 66.1668 27.3054 71.1021 29.3455C76.0374 31.3855 79.338 33.5976 80.3634 34.9778C81.3889 36.358 81.5714 37.1898 81.5714 37.1898C81.5714 37.1898 82.1177 33.1957 81.2278 29.2312C80.3379 25.2667 77.0669 19.5054 76.3207 18.097C75.569 16.6892 75.2637 15.0854 75.4455 13.4995C75.5818 12.4094 75.9022 11.3506 76.3931 10.3682C74.7825 11.3089 74.9596 15.221 74.6845 15.4965C74.6845 15.4965 72.69 13.4712 72.0591 13.0116C71.6335 12.708 71.1847 12.4384 70.7169 12.2053C70.7169 12.2053 74.8496 15.4522 76.169 20.4515C77.4884 25.4508 78.5474 27.3619 75.1368 27.6347C70.0243 28.0459 62.5267 27.5003 60.1577 21.1987C59.3523 19.0726 59.7671 25.2398 63.5132 26.8014C63.5132 26.8014 59.7966 26.6442 57.6732 28.023" fill="#7F2E34"/>
<path fill-rule="evenodd" clip-rule="evenodd" d="M10.1724 36.6646H76.5679C77.807 36.6681 78.9944 37.1625 79.8706 38.0398C80.7468 38.9172 81.2406 40.106 81.2442 41.3467V60.4302C81.2385 61.6702 80.744 62.8579 79.8683 63.7347C78.9925 64.6116 77.8064 65.1067 76.5679 65.1123H10.1724C8.93389 65.1067 7.74774 64.6116 6.87199 63.7347C5.99624 62.8579 5.50174 61.6702 5.49609 60.4302V41.3467C5.49964 40.106 5.99345 38.9172 6.86966 38.0398C7.74587 37.1625 8.93324 36.6681 10.1724 36.6646Z" fill="#0C7155"/>
<path d="M76.1779 61.509C76.1161 60.5683 76.0436 59.6275 75.9497 58.8494C75.8571 58.0189 75.7014 57.6251 75.4128 57.6251C75.0397 57.6251 74.5216 58.2272 74.1887 58.7459L74.3659 58.9744C74.6249 58.6115 74.884 58.3723 74.9672 58.3723C75.0504 58.3723 75.1229 58.4973 75.1846 59.016C75.3533 60.1382 75.4608 61.2688 75.5067 62.4027C74.8316 63.3107 74.0074 64.0973 73.0693 64.729L73.1525 64.9575L74.2263 64.6766C74.8994 63.9009 75.5259 63.086 76.1027 62.236C76.6624 61.4566 77.5442 60.0858 77.9818 59.2969C78.2408 58.84 78.3563 58.4906 78.3563 58.1963C78.3455 57.8536 78.1791 57.6251 77.9402 57.6251C77.8481 57.6288 77.7588 57.6579 77.682 57.7091C77.6053 57.7603 77.5442 57.8317 77.5053 57.9154C77.4842 57.9529 77.4713 57.9945 77.4676 58.0374C77.4639 58.0803 77.4694 58.1234 77.4838 58.164C77.5549 58.3181 77.5972 58.4839 77.6087 58.6532C77.6087 59.4112 76.6543 60.8236 76.2087 61.509H76.1779ZM73.1283 61.1555C72.8277 61.4472 72.5163 61.634 72.4223 61.634C72.3606 61.634 72.3391 61.5614 72.4022 61.3007L72.9096 59.1316C73.2317 57.7501 72.9002 57.6264 72.6814 57.6264C72.4612 57.6393 72.2477 57.7067 72.0599 57.8227C71.6036 58.0726 70.8519 58.6438 70.1513 59.6302H70.1298L70.2238 59.2042C70.5244 57.8858 70.2654 57.6264 69.9741 57.6264C69.7491 57.6395 69.5312 57.7108 69.3419 57.8334C68.9057 58.0928 68.1903 58.6398 67.4749 59.641H67.4534L67.64 58.9139C67.8588 58.0095 67.8172 57.6264 67.5581 57.6264C67.2991 57.6264 66.6763 58.0001 66.0951 58.6223L66.2199 58.883C66.4682 58.6438 66.832 58.3737 66.9353 58.3737C66.9971 58.3844 67.0293 58.4355 66.9461 58.8198C66.687 59.9837 66.3958 61.1676 66.0844 62.3409L66.1569 62.404C66.3992 62.3189 66.6498 62.2595 66.9045 62.2266C67.0293 61.6044 67.1837 60.9083 67.33 60.4406C67.6615 59.7686 68.9165 58.2796 69.4252 58.2796C69.6319 58.2796 69.6533 58.5188 69.5084 59.2203C69.2896 60.2269 69.0198 61.2872 68.7608 62.3355L68.8225 62.3987C69.0682 62.3124 69.3224 62.2529 69.5808 62.2213C69.6949 61.6084 69.86 60.923 69.9835 60.4352C70.3473 59.7391 71.6022 58.2742 72.1002 58.2742C72.2559 58.2742 72.3176 58.4409 72.1928 58.9462L71.6438 61.345C71.4559 62.103 71.5499 62.404 71.7995 62.404C72.0492 62.404 72.7122 62.0304 73.2612 61.4069L73.1283 61.1555ZM63.8227 58.0646C64.1234 58.0646 64.3408 58.2729 64.3408 58.625C64.3408 59.1142 63.8952 59.5818 62.4121 59.9863C62.5986 58.8225 63.1181 58.3454 63.3865 58.1788C63.5183 58.0995 63.669 58.0572 63.8227 58.0565V58.0646ZM64.6831 61.0037C64.1543 61.513 63.5946 61.81 63.1583 61.81C62.5262 61.81 62.3597 61.1972 62.3597 60.6368C62.3597 60.5427 62.3597 60.4392 62.3705 60.3049C63.3771 60.0549 65.1086 59.4985 65.1086 58.4664C65.1086 58.0296 64.7569 57.6359 64.2066 57.6359C63.761 57.6359 63.2107 57.8845 62.7745 58.2272C61.9557 58.8507 61.5195 59.9407 61.5195 60.9069C61.5195 62.1433 62.1839 62.4228 62.6711 62.4228C63.1583 62.4228 63.9476 62.2253 64.8495 61.2496L64.6831 61.0037ZM57.1519 61.7415C56.9761 61.7415 56.8311 61.5023 56.8311 60.9728C56.8311 60.1006 57.2459 58.7916 57.9411 58.293C58.1481 58.1415 58.4003 58.0647 58.6565 58.0753C58.958 58.0735 59.2522 58.1676 59.4968 58.3441L59.1652 59.8291C58.823 60.45 57.6821 61.7375 57.1519 61.7375V61.7415ZM60.4202 61.1287C60.1397 61.4095 59.8082 61.638 59.6833 61.638C59.6109 61.638 59.6001 61.5439 59.6417 61.3047C60.0055 59.2795 60.4403 57.2649 60.9276 55.1873C60.9692 54.9803 60.949 54.897 60.8551 54.897C60.6994 54.897 60.1397 55.1658 59.2686 55.2612L59.2377 55.5205H59.5692C60.0256 55.5205 60.0565 55.5622 59.9639 56.0393L59.6216 57.7434C59.4276 57.6636 59.2192 57.6247 59.0095 57.6291C58.521 57.6291 57.6673 58.0027 57.1734 58.4288C56.4164 59.0819 55.9654 60.1933 55.9654 61.1703C55.9654 62.0009 56.2983 62.4161 56.6365 62.4161C56.9264 62.4161 57.2579 62.2508 57.6418 61.939C58.1572 61.549 58.6178 61.091 59.0109 60.5777L59.0324 60.5683L58.8458 61.4512C58.6794 62.2508 58.8243 62.4161 59.0324 62.4161C59.333 62.4161 60.0068 62.0224 60.5571 61.3679L60.4202 61.1287ZM51.7884 61.7522C51.6341 61.7522 51.5092 61.5332 51.5092 61.0668C51.5092 60.0374 51.924 58.8225 52.6286 58.3038C52.8503 58.1575 53.1108 58.0816 53.3763 58.0861C53.6121 58.0859 53.8453 58.1353 54.0608 58.2312C53.999 58.5631 53.8433 59.3063 53.7185 59.7162C53.3763 60.4392 52.1938 61.7482 51.7884 61.7482V61.7522ZM54.9534 61.0803C54.642 61.3813 54.289 61.6313 54.195 61.6313C54.144 61.6313 54.1131 61.5372 54.1749 61.1838C54.4138 59.8654 54.7238 58.4529 54.8903 57.8092L54.8701 57.7676C54.7367 57.7606 54.6045 57.7394 54.4755 57.7044C54.2649 57.6533 54.0493 57.6259 53.8326 57.6224C53.1789 57.6224 52.4219 57.9853 51.8931 58.422C51.1348 59.055 50.6475 60.1973 50.6475 61.2442C50.6475 62.064 50.9804 62.4067 51.2502 62.4067C51.52 62.4067 51.8716 62.2199 52.2139 61.9404C52.7249 61.5264 53.1766 61.0439 53.5561 60.5064H53.587L53.3803 61.4929C53.2246 62.2508 53.3588 62.4067 53.5561 62.4067C53.8152 62.4067 54.5104 62.0224 55.0809 61.3316L54.9534 61.0803ZM49.5482 61.0279C49.2677 61.3195 48.6355 61.7966 48.1054 61.7966C47.6597 61.7966 47.3792 61.4122 47.3792 60.6758C47.379 60.0261 47.5322 59.3856 47.8262 58.8064C48.0329 58.422 48.3241 58.1103 48.6865 58.1103C49.0087 58.1103 49.257 58.2554 49.4758 58.5564C49.4851 58.5771 49.4988 58.5954 49.516 58.61C49.5332 58.6247 49.5535 58.6354 49.5753 58.6413C49.5971 58.6472 49.6199 58.6482 49.6422 58.6442C49.6644 58.6402 49.6855 58.6314 49.7039 58.6182C49.7978 58.5772 49.8785 58.5108 49.9371 58.4266C49.9956 58.3424 50.0297 58.2436 50.0355 58.1412C50.0247 57.8818 49.6932 57.6224 49.2476 57.6224C48.7389 57.6224 48.0128 58.0162 47.598 58.4005C46.9269 59.0026 46.5242 60.0213 46.5242 60.8935C46.5242 61.8799 46.9698 62.4094 47.6342 62.4094C48.2463 62.4094 49.0758 61.9941 49.7093 61.2563L49.5482 61.0279ZM43.562 59.4004H41.6829C42.1298 58.5282 42.6063 57.6654 43.1244 56.7207H43.1459L43.562 59.4004ZM45.6343 62.0076C44.8975 61.935 44.829 61.8517 44.6948 61.1045C44.4666 59.8681 44.2384 58.5699 44.0317 57.2407L43.7552 55.3915L43.4344 55.4749L40.3151 61.0131C39.8279 61.8745 39.7246 61.9269 39.0803 62.0103L39.0078 62.2911H41.2386L41.3003 62.0103C40.5124 61.9484 40.44 61.8759 40.7406 61.2523C40.9688 60.7739 41.2775 60.1772 41.456 59.8399H43.621C43.7257 60.4419 43.8183 60.9405 43.8814 61.3759C43.9445 61.8114 43.9015 61.9377 43.1861 62.0103L43.1137 62.2911H45.5619L45.6343 62.0076Z" fill="white"/>
<path d="M79.7894 67.804C79.8299 67.8028 79.8703 67.8103 79.9077 67.826C79.9451 67.8417 79.9787 67.8653 80.0063 67.8951C80.0339 67.9248 80.0548 67.9602 80.0676 67.9987C80.0804 68.0372 80.0849 68.0781 80.0807 68.1185C80.0807 68.3872 79.831 68.656 78.9988 68.8818C79.1035 68.23 79.3948 67.9612 79.5451 67.8685C79.6194 67.8257 79.7037 67.8034 79.7894 67.804ZM80.2726 69.453C79.976 69.7392 79.6619 69.9018 79.4176 69.9018C79.0619 69.9018 78.9693 69.5578 78.9693 69.2433C78.9693 69.1909 78.9693 69.1331 78.9693 69.0565C79.5344 68.9221 80.5061 68.6023 80.5061 68.0257C80.5048 67.9614 80.4905 67.898 80.4641 67.8394C80.4377 67.7808 80.3997 67.7281 80.3525 67.6845C80.3052 67.641 80.2496 67.6074 80.1891 67.5859C80.1285 67.5644 80.0642 67.5554 80.0001 67.5594C79.7038 67.5837 79.4224 67.6998 79.1948 67.8913C78.9738 68.0744 78.7961 68.3042 78.6745 68.5642C78.5529 68.8242 78.4904 69.108 78.4915 69.3952C78.4915 70.0886 78.8633 70.2459 79.1371 70.2459C79.4109 70.2459 79.8525 70.1357 80.3598 69.5874L80.2726 69.453ZM77.0513 67.6642L76.8768 67.8282L76.8942 67.8981H77.3707C77.2781 68.4692 77.1962 68.9463 77.0634 69.7446C76.8647 70.8748 76.7305 71.1194 76.6607 71.2068C76.6295 71.2426 76.5912 71.2715 76.5482 71.2916C76.5052 71.3117 76.4585 71.3227 76.411 71.3237C76.2762 71.3175 76.1472 71.2664 76.0446 71.1785C76.0084 71.1436 75.9802 71.1369 75.9332 71.1785C75.849 71.2354 75.7906 71.3233 75.7708 71.4231C75.7708 71.5508 75.9681 71.6731 76.1372 71.6731C76.3063 71.6731 76.5332 71.5804 76.7882 71.3062C77.109 70.9743 77.3251 70.5375 77.5278 69.5349C77.662 68.8885 77.7197 68.5499 77.8311 67.9088L78.4123 67.851L78.5291 67.6642H77.8714C78.0459 66.5891 78.2257 66.3069 78.4418 66.3069C78.5138 66.3133 78.5836 66.3348 78.6467 66.37C78.7098 66.4052 78.7649 66.4533 78.8082 66.5112C78.8177 66.5207 78.829 66.5284 78.8415 66.5336C78.8539 66.5387 78.8672 66.5414 78.8807 66.5414C78.8942 66.5414 78.9075 66.5387 78.92 66.5336C78.9324 66.5284 78.9437 66.5207 78.9532 66.5112C79.0319 66.4518 79.0844 66.3641 79.0995 66.2666C79.0995 66.1671 78.9532 66.022 78.7505 66.022C78.517 66.022 78.1855 66.1913 77.9184 66.4883C77.6513 66.7853 77.5157 67.2167 77.4231 67.6589L77.0513 67.6642ZM76.2352 69.5457C76.0943 69.668 75.897 69.8145 75.8325 69.8145C75.7976 69.8145 75.7856 69.7674 75.8205 69.6277L76.2164 68.0257C76.2862 67.757 76.2929 67.5661 76.1587 67.5661C76.0245 67.5661 75.6003 67.804 75.2795 68.1185L75.3493 68.2529C75.4667 68.1462 75.6034 68.0632 75.752 68.0083C75.7869 68.0083 75.7869 68.0661 75.7587 68.1937L75.3923 69.6801C75.2755 70.1585 75.3574 70.2512 75.4728 70.2512C75.6715 70.2512 76.1184 69.9072 76.3171 69.6747L76.2352 69.5457ZM76.2231 66.4547C76.1367 66.4596 76.0557 66.4985 75.9979 66.563C75.94 66.6274 75.91 66.7122 75.9144 66.7987C75.9118 66.8309 75.9159 66.8632 75.9265 66.8936C75.9371 66.9241 75.9539 66.952 75.9759 66.9755C75.9979 66.999 76.0246 67.0177 76.0542 67.0303C76.0838 67.0429 76.1158 67.0492 76.148 67.0487C76.1902 67.0479 76.2317 67.0385 76.2702 67.0213C76.3087 67.004 76.3434 66.9791 76.3721 66.9481C76.4007 66.9171 76.4229 66.8807 76.4372 66.8409C76.4515 66.8012 76.4577 66.759 76.4553 66.7168C76.4602 66.683 76.4577 66.6486 76.448 66.6159C76.4383 66.5832 76.4217 66.553 76.3992 66.5273C76.3768 66.5017 76.3491 66.4812 76.318 66.4673C76.2869 66.4533 76.2532 66.4463 76.2191 66.4466L76.2231 66.4547ZM74.646 69.2111C74.5453 69.4283 74.4092 69.6272 74.2434 69.7997C74.0984 69.9448 73.9011 69.9811 73.5629 69.9811C73.3065 69.9811 73.1213 69.969 73.0394 69.9045C72.9575 69.84 72.9347 69.6949 72.975 69.4852L73.4353 67.0662C73.5159 66.6227 73.54 66.5945 74.0058 66.5528L74.0407 66.3956H72.5803L72.5455 66.5528C73.0166 66.5945 73.0461 66.6173 72.9589 67.0662L72.4783 69.5C72.3911 69.9421 72.3508 69.9838 71.9025 70.0241L71.8676 70.176H74.434C74.5158 70.0013 74.736 69.4597 74.8057 69.2675L74.646 69.2111ZM69.3308 68.5297L69.3953 68.2381C69.4825 67.8349 69.4758 67.5661 69.3255 67.5661C69.1751 67.5661 68.8074 67.8107 68.5107 68.1373L68.5913 68.2717C68.7079 68.1504 68.8488 68.0552 69.0047 67.9921C69.0463 67.9921 69.0517 68.0499 69.0168 68.2488C68.9067 68.8657 68.7376 69.582 68.5913 70.2056L68.6329 70.2472C68.7687 70.2049 68.9067 70.1699 69.0463 70.1424C69.1215 69.7567 69.1912 69.3965 69.2785 69.0054C69.3933 68.753 69.5336 68.513 69.6973 68.2891C69.8315 68.1023 69.9241 68.0378 69.9939 68.0378C70.0309 68.0407 70.0669 68.051 70.0999 68.0681C70.1329 68.0852 70.1621 68.1087 70.1858 68.1373C70.204 68.1544 70.228 68.1639 70.2529 68.1639C70.2779 68.1639 70.3019 68.1544 70.32 68.1373C70.384 68.0907 70.4375 68.0311 70.4771 67.9626C70.4988 67.9255 70.5102 67.8833 70.5102 67.8403C70.5102 67.7973 70.4988 67.7551 70.4771 67.718C70.4505 67.6746 70.414 67.6382 70.3706 67.6118C70.3272 67.5854 70.2781 67.5697 70.2274 67.5661C69.9939 67.5661 69.6516 67.9693 69.3483 68.5337L69.3308 68.5297ZM66.6638 70.0174C66.3551 70.0174 66.1753 69.7486 66.1753 69.3132C66.1753 68.4222 66.5645 67.9438 66.7914 67.8349C66.8608 67.8029 66.9364 67.7868 67.0128 67.7879C67.2813 67.7879 67.4839 68.0096 67.4839 68.4813C67.4839 69.2272 67.1645 69.8454 66.8558 69.9798C66.7946 70.0038 66.7296 70.0166 66.6638 70.0174ZM66.4545 70.2512C66.7867 70.2352 67.1033 70.1052 67.3511 69.883C67.5479 69.705 67.705 69.4874 67.8123 69.2445C67.9196 69.0016 67.9747 68.7388 67.9739 68.4733C67.9739 67.8954 67.6826 67.5634 67.2048 67.5634C66.9815 67.5768 66.7644 67.6427 66.5712 67.7556C66.2936 67.9154 66.0647 68.1477 65.9089 68.4278C65.7531 68.7078 65.6763 69.025 65.6867 69.3455C65.6867 69.8091 65.9015 70.2459 66.4545 70.2459V70.2512ZM64.2237 67.6642L64.0492 67.8282L64.0667 67.8981H64.5445C64.4505 68.4692 64.3687 68.9463 64.2358 69.7446C64.0371 70.8748 63.9042 71.1194 63.8331 71.2068C63.8021 71.2428 63.7638 71.2718 63.7208 71.2919C63.6777 71.3121 63.631 71.3229 63.5835 71.3237C63.4486 71.3175 63.3196 71.2664 63.217 71.1785C63.1821 71.1436 63.1526 71.1369 63.1056 71.1785C63.0214 71.2354 62.963 71.3233 62.9432 71.4231C62.9432 71.5508 63.1405 71.6731 63.3096 71.6731C63.4788 71.6731 63.7123 71.5804 63.962 71.3062C64.2814 70.9743 64.4989 70.5375 64.7002 69.5349C64.8344 68.8885 64.8921 68.5499 65.0035 67.9088L65.5847 67.851L65.7015 67.6642H65.0438C65.2183 66.5891 65.3995 66.3069 65.6142 66.3069C65.6862 66.3133 65.756 66.3348 65.8191 66.37C65.8823 66.4052 65.9373 66.4533 65.9807 66.5112C65.9903 66.5208 66.0017 66.5284 66.0142 66.5336C66.0268 66.5389 66.0402 66.5415 66.0538 66.5415C66.0674 66.5415 66.0809 66.5389 66.0934 66.5336C66.106 66.5284 66.1174 66.5208 66.127 66.5112C66.2048 66.4513 66.2567 66.3637 66.2719 66.2666C66.2719 66.1671 66.127 66.022 65.9229 66.022C65.6894 66.022 65.3579 66.1913 65.0908 66.4883C64.8237 66.7853 64.6881 67.2167 64.5955 67.6589L64.2237 67.6642ZM60.8588 71.4272C60.4561 71.4272 60.0722 71.2121 60.0722 70.9205C60.0722 70.7041 60.3232 70.4716 60.7125 70.2848C60.7943 70.3265 60.9567 70.4192 61.15 70.5294C61.4185 70.6867 61.5742 70.8385 61.5742 70.9958C61.5742 71.2269 61.295 71.4285 60.8588 71.4285V71.4272ZM61.0158 69.3024C60.8064 69.3024 60.6427 69.1224 60.6427 68.7797C60.6384 68.5108 60.7156 68.247 60.8641 68.023C60.906 67.9475 60.9665 67.8839 61.0397 67.8383C61.113 67.7927 61.1967 67.7665 61.2829 67.7623C61.5393 67.7623 61.6735 67.9948 61.6735 68.3254C61.6735 68.949 61.3245 69.3038 61.0158 69.3038V69.3024ZM62.5808 67.5876C62.3751 67.6831 62.1498 67.7292 61.9231 67.722C61.7832 67.6102 61.6081 67.5521 61.4292 67.5581C61.1565 67.5737 60.8958 67.6753 60.6843 67.8483C60.5352 67.9633 60.4138 68.1103 60.329 68.2784C60.2443 68.4466 60.1982 68.6317 60.1944 68.82C60.1944 69.2151 60.3702 69.453 60.7071 69.5282C60.4279 69.6962 60.346 69.797 60.346 69.8884C60.3568 69.9505 60.3819 70.0093 60.4194 70.0599C60.457 70.1106 60.5058 70.1517 60.5621 70.18C59.9219 70.5066 59.5957 70.7686 59.5836 71.02C59.5729 71.3801 60.0615 71.6718 60.6252 71.6718C61.1889 71.6718 61.9996 71.317 61.9996 70.8385C61.9996 70.5886 61.7715 70.3547 61.2131 70.0644C60.9447 69.918 60.7943 69.8131 60.7943 69.7204C60.7989 69.6833 60.8118 69.6478 60.832 69.6163C60.8522 69.5849 60.8793 69.5585 60.9111 69.539C61.1844 69.4856 61.4414 69.3687 61.6614 69.1976C61.7968 69.0906 61.9068 68.9548 61.9834 68.8C62.06 68.6452 62.1013 68.4753 62.1043 68.3026C62.106 68.1946 62.0901 68.087 62.0574 67.9841L62.209 67.9666C62.3687 67.9171 62.5114 67.8241 62.6211 67.6978L62.5808 67.5876ZM59.4937 69.539C59.392 69.6588 59.2618 69.7513 59.1152 69.8078C59.0736 69.8078 59.0682 69.7553 59.1031 69.5981C59.1957 69.1949 59.2951 68.7918 59.3877 68.3886C59.5635 67.6427 59.3998 67.5554 59.2535 67.5554C59.1155 67.5635 58.9826 67.6101 58.8696 67.6898C58.448 67.9555 58.083 68.3022 57.7958 68.7098H57.7837L57.9059 68.2018C58.0106 67.7543 57.9878 67.5554 57.8602 67.5554C57.6965 67.5554 57.3596 67.7717 57.0388 68.1091L57.1207 68.2434C57.2245 68.1305 57.3513 68.0412 57.4925 67.9814C57.5274 67.9814 57.5448 68.0284 57.5046 68.2139C57.3596 68.8616 57.1905 69.5578 57.0281 70.1894L57.063 70.2311C57.1995 70.1831 57.3395 70.1458 57.4817 70.1195C57.5515 69.7648 57.6388 69.4207 57.7086 69.1358C57.9998 68.6399 58.675 67.9263 58.93 67.9263C59.0172 67.9263 59.0521 68.0069 58.9716 68.3402C58.8723 68.7703 58.7729 69.2017 58.6683 69.633C58.5636 70.0644 58.6159 70.2392 58.7555 70.2392C58.8951 70.2392 59.2333 70.0523 59.5769 69.6734L59.4937 69.539ZM56.3489 69.539C56.2147 69.6613 56.012 69.8078 55.9462 69.8078C55.9113 69.8078 55.8993 69.7607 55.9342 69.621L56.3301 68.019C56.3999 67.7502 56.4053 67.5594 56.2711 67.5594C56.1368 67.5594 55.7127 67.7973 55.3932 68.1117L55.463 68.2461C55.5799 68.1389 55.7168 68.0558 55.8657 68.0015C55.9006 68.0015 55.9006 68.0593 55.8657 68.187L55.4993 69.6734C55.3825 70.1518 55.4644 70.2445 55.5812 70.2445C55.7785 70.2445 56.2268 69.9005 56.4241 69.668L56.3489 69.539ZM56.3368 66.448C56.2506 66.4532 56.17 66.4923 56.1124 66.5567C56.0549 66.6211 56.0251 66.7057 56.0295 66.792C56.0266 66.8241 56.0306 66.8564 56.041 66.8868C56.0514 66.9173 56.0681 66.9452 56.09 66.9687C56.1119 66.9923 56.1385 67.011 56.1681 67.0236C56.1976 67.0362 56.2295 67.0425 56.2617 67.042C56.3038 67.041 56.3454 67.0315 56.3839 67.0142C56.4224 66.9968 56.457 66.972 56.4858 66.9411C56.5145 66.9101 56.5368 66.8738 56.5514 66.8341C56.5659 66.7944 56.5723 66.7523 56.5704 66.7101C56.574 66.6767 56.5705 66.643 56.5602 66.6112C56.5498 66.5793 56.5329 66.55 56.5105 66.5251C56.4881 66.5002 56.4606 66.4804 56.43 66.4669C56.3994 66.4533 56.3663 66.4465 56.3328 66.4466L56.3368 66.448ZM54.7114 69.539C54.6104 69.6591 54.4807 69.7516 54.3342 69.8078C54.2926 69.8078 54.2873 69.7553 54.3222 69.5981C54.4148 69.1949 54.5141 68.7918 54.6067 68.3886C54.7812 67.6427 54.6188 67.5554 54.4725 67.5554C54.3341 67.5637 54.2008 67.6102 54.0873 67.6898C53.6657 67.9555 53.3007 68.3022 53.0135 68.7098H53.0014L53.1236 68.2018C53.2282 67.7543 53.2054 67.5554 53.0766 67.5554C52.9142 67.5554 52.5773 67.7717 52.2565 68.1091L52.3384 68.2434C52.4422 68.1305 52.569 68.0412 52.7101 67.9814C52.745 67.9814 52.7625 68.0284 52.7222 68.2139C52.5773 68.8616 52.4082 69.5578 52.2444 70.1894L52.2793 70.2311C52.4163 70.1833 52.5567 70.146 52.6994 70.1195C52.7692 69.7648 52.8564 69.4207 52.9262 69.1358C53.2162 68.6399 53.8913 67.9263 54.1477 67.9263C54.2349 67.9263 54.2698 68.0069 54.1893 68.3402C54.0899 68.7703 53.9906 69.2017 53.8859 69.633C53.7812 70.0644 53.8336 70.2392 53.9732 70.2392C54.1128 70.2392 54.451 70.0523 54.7933 69.6734L54.7114 69.539ZM50.7008 68.5257L50.7653 68.234C50.8525 67.8309 50.8458 67.5621 50.6941 67.5621C50.5425 67.5621 50.1774 67.8067 49.8808 68.1333L49.9613 68.2676C50.0779 68.1464 50.2188 68.0512 50.3747 67.9881C50.415 67.9881 50.4217 68.0459 50.3868 68.2448C50.2754 68.8616 50.1076 69.5779 49.9613 70.2015L50.0029 70.2432C50.1382 70.2007 50.2758 70.1657 50.415 70.1384C50.4915 69.7527 50.5613 69.3925 50.6485 69.0014C50.7633 68.749 50.9036 68.5089 51.0673 68.2851C51.2015 68.0983 51.2941 68.0338 51.3639 68.0338C51.4009 68.0368 51.4369 68.0472 51.4698 68.0643C51.5028 68.0813 51.532 68.1048 51.5558 68.1333C51.574 68.1504 51.598 68.1599 51.623 68.1599C51.6479 68.1599 51.6719 68.1504 51.6901 68.1333C51.7537 68.0863 51.8071 68.0268 51.8471 67.9585C51.8682 67.9212 51.8792 67.8791 51.8792 67.8362C51.8792 67.7934 51.8682 67.7513 51.8471 67.7139C51.8203 67.6705 51.7836 67.634 51.74 67.6076C51.6963 67.5812 51.647 67.5656 51.5961 67.5621C51.3639 67.5621 51.0203 67.9653 50.7183 68.5297L50.7008 68.5257ZM47.5735 69.8696C47.4862 69.8696 47.4164 69.7473 47.4164 69.4852C47.4164 68.9087 47.65 68.2273 48.0446 67.9357C48.1695 67.8542 48.3157 67.8116 48.4647 67.8134C48.597 67.8134 48.7278 67.8413 48.8486 67.8954C48.8137 68.0808 48.7264 68.5015 48.6566 68.7286C48.4607 69.1385 47.7963 69.8723 47.5695 69.8723L47.5735 69.8696ZM49.3492 69.4973C49.2296 69.628 49.0849 69.7331 48.9238 69.8064C48.8942 69.8064 48.8768 69.754 48.9117 69.5551C49.0459 68.816 49.2204 68.023 49.3143 67.6615L49.3023 67.6387C49.2274 67.6347 49.1532 67.623 49.0808 67.6038C48.9626 67.5743 48.8415 67.5585 48.7197 67.5567C48.3533 67.5567 47.9292 67.761 47.6325 68.0056C47.413 68.207 47.2375 68.4518 47.1172 68.7245C46.9968 68.9972 46.9342 69.2919 46.9332 69.59C46.9332 70.051 47.1198 70.2432 47.2715 70.2432C47.4745 70.2131 47.6625 70.1189 47.8084 69.9744C48.0945 69.7416 48.347 69.4702 48.5587 69.1681H48.5761L48.4607 69.7217C48.3734 70.1478 48.4486 70.2351 48.5587 70.2351C48.705 70.2351 49.0956 70.0201 49.415 69.629L49.3492 69.4973ZM45.8219 67.804C45.8624 67.8028 45.9028 67.8103 45.9402 67.826C45.9776 67.8417 46.0112 67.8653 46.0388 67.8951C46.0664 67.9248 46.0873 67.9602 46.1001 67.9987C46.1129 68.0372 46.1174 68.0781 46.1131 68.1185C46.1131 68.3872 45.8635 68.656 45.0313 68.8818C45.136 68.23 45.4259 67.9612 45.5776 67.8685C45.6519 67.8257 45.7362 67.8034 45.8219 67.804ZM46.3051 69.453C46.0085 69.7392 45.6944 69.9018 45.4501 69.9018C45.0944 69.9018 45.0018 69.5578 45.0018 69.2433C45.0018 69.1909 45.0018 69.1331 45.0018 69.0565C45.5669 68.9221 46.5386 68.6023 46.5386 68.0257C46.5371 67.9615 46.5227 67.8982 46.4962 67.8397C46.4697 67.7811 46.4318 67.7285 46.3845 67.685C46.3373 67.6414 46.2818 67.6079 46.2213 67.5863C46.1609 67.5648 46.0967 67.5556 46.0326 67.5594C45.7362 67.5835 45.4547 67.6995 45.2273 67.8913C45.0063 68.0744 44.8286 68.3042 44.707 68.5642C44.5854 68.8242 44.5229 69.108 44.524 69.3952C44.524 70.0886 44.8958 70.2459 45.1696 70.2459C45.4434 70.2459 45.885 70.1357 46.391 69.5874L46.3051 69.453ZM43.8421 69.2111C43.7414 69.4283 43.6053 69.6272 43.4394 69.7997C43.2945 69.9448 43.0958 69.9811 42.7589 69.9811C42.5026 69.9811 42.316 69.969 42.2355 69.9045C42.1549 69.84 42.1308 69.6949 42.1711 69.4852L42.6314 67.0662C42.712 66.6227 42.7361 66.5945 43.2019 66.5528L43.2354 66.3956H41.7764L41.7415 66.5528C42.2127 66.5945 42.2408 66.6173 42.1536 67.0662L41.6771 69.5013C41.5899 69.9435 41.5496 69.9851 41.1013 70.0255L41.0664 70.1773H43.6327C43.7133 70.0026 43.9347 69.461 44.0045 69.2688L43.8421 69.2111Z" fill="white"/>
<path fill-rule="evenodd" clip-rule="evenodd" d="M94.4418 21.5442C92.3199 23.1858 90.5608 25.25 89.2756 27.6065C87.1818 31.485 86.2342 33.6111 87.1818 35.1915C88.1294 36.772 99.1758 36.9735 100.554 36.4266C101.933 35.8796 104.141 32.204 104.4 31.4541C104.659 30.7042 104.859 30.9649 104.859 30.9649C104.859 30.9649 103.165 34.4134 102.735 35.1606C102.306 35.9078 101.788 36.6389 102.199 36.8701C102.609 37.1012 104.81 37.6603 105.298 37.8175C105.785 37.9747 106.145 38.1199 106.145 38.1199C106.145 38.1199 100.607 38.1051 99.4013 38.1051C98.196 38.1051 87.9925 38.7945 84.9242 42.329C81.8559 45.8635 81.9109 47.7597 81.9109 47.7597C81.9109 47.7597 81.4223 39.8858 83.5752 35.1163C85.7282 30.3467 89.3857 25.8433 89.7736 24.8018C90.1615 23.7603 90.1763 22.9338 89.6877 21.2391C89.1991 19.5444 88.6824 18.9692 88.6824 18.9692C88.6824 18.9692 89.5146 19.1708 89.9454 20.2621C90.3763 21.3533 90.6058 23.8248 90.6058 23.8248C90.6058 23.8248 93.5103 21.137 94.4365 21.5401" fill="#7F2E34"/>
<path fill-rule="evenodd" clip-rule="evenodd" d="M102.913 41.3452C102.762 42.5077 101.638 42.7012 100.403 42.4808C99.1685 42.2604 98.3659 41.0401 98.4397 40.5483C98.5135 40.0564 99.7135 39.1923 100.95 39.4127C102.186 39.6331 103.064 40.1841 102.913 41.3452ZM101.26 31.3237C102.225 31.9876 101.885 33.0708 101.125 34.0774C100.366 35.084 98.9202 35.2372 98.5175 34.9415C98.1149 34.6458 97.8921 33.1944 98.6518 32.1878C99.4115 31.1812 100.296 30.6598 101.26 31.3237ZM93.3836 16.0381C94.5016 16.3835 94.503 17.5245 94.0788 18.7058C93.6547 19.8871 92.3165 20.4744 91.8454 20.3185C91.3743 20.1626 90.7246 18.8321 91.1488 17.6508C91.5729 16.4695 92.2642 15.6927 93.3836 16.0381ZM86.6255 20.6437C87.7422 20.2929 88.3905 21.2337 88.71 22.4432C89.0294 23.6527 88.2617 24.8998 87.7852 25.0396C87.3087 25.1794 86.0202 24.4537 85.6994 23.2388C85.3786 22.0239 85.5088 20.9958 86.6255 20.6437ZM95.7526 24.4765C96.5431 25.3406 95.9673 26.3257 95.0036 27.1294C94.0399 27.933 92.5876 27.761 92.2615 27.3874C91.9353 27.0138 92.0454 25.5342 93.0145 24.7345C93.9835 23.9349 94.962 23.6124 95.7512 24.4765H95.7526ZM93.3876 30.895C94.4828 32.2161 93.5715 33.6178 92.1044 34.7251C90.6374 35.8325 88.5261 35.4791 88.0778 34.9092C87.6295 34.3394 87.8939 32.1865 89.3623 31.0778C90.8307 29.969 92.291 29.5739 93.3863 30.895H93.3876ZM108.67 34.1204C109.126 35.1955 108.255 35.936 107.078 36.3701C105.901 36.8042 104.592 36.1577 104.409 35.6981C104.225 35.2385 104.823 33.8838 106 33.4484C107.178 33.013 108.212 33.0358 108.669 34.115L108.67 34.1204Z" fill="#0C7155"/>
<path fill-rule="evenodd" clip-rule="evenodd" d="M85.5899 43.1069C85.5899 43.1069 87.0247 46.6696 88.6891 50.0025C90.3534 53.3354 90.7561 59.9474 89.6649 62.4726C88.5737 64.9978 88.9763 64.8916 88.9763 64.8916C88.9763 64.8916 88.6891 56.214 87.0825 53.3408C86.0958 51.5668 85.2865 49.6995 84.6665 47.7663C84.6665 47.7663 84.2074 51.5023 85.4718 54.6054C86.7362 57.7085 87.3079 65.0059 86.4476 67.2475C85.5872 69.4891 83.8074 72.2468 83.8074 72.2468C83.8074 72.2468 86.4476 68.6841 84.6128 61.8988C82.778 55.1134 80.5338 47.8765 85.5899 43.1069Z" fill="#7F2E34"/>
<path d="M74.367 47.7317C74.3598 47.7873 74.3686 47.8437 74.3924 47.8944C74.4162 47.9451 74.4539 47.988 74.5012 48.018C74.5515 48.0399 74.607 48.047 74.6612 48.0384C74.7154 48.0298 74.7661 48.006 74.8072 47.9696L76.2836 46.9993C76.3953 46.9275 76.4875 46.8291 76.5521 46.713C76.622 46.5934 76.6719 46.4631 76.6997 46.3273V45.22C76.6947 45.062 76.6485 44.9082 76.5655 44.7738C76.492 44.6362 76.3872 44.5179 76.2595 44.4284L75.6676 44.0521C75.5393 43.9747 75.3925 43.9338 75.2427 43.9338C75.093 43.9338 74.9462 43.9747 74.8179 44.0521C74.8002 44.0598 74.7835 44.0698 74.7683 44.0817C74.7534 44.0941 74.7366 44.1041 74.7186 44.1112C74.6055 44.1871 74.5165 44.294 74.4623 44.419C74.3977 44.5513 74.3637 44.6964 74.3629 44.8437L74.367 47.7317ZM74.367 49.6132V51.414C74.3968 51.5538 74.4504 51.6875 74.5253 51.8091C74.5925 51.9288 74.6873 52.0306 74.8018 52.1061L76.2434 53.0361C76.3704 53.1168 76.5185 53.1579 76.6688 53.1544C76.8188 53.1581 76.9665 53.117 77.093 53.0361L78.5157 52.1263C78.6335 52.0482 78.7695 52.0019 78.9104 51.9919C79.0345 51.9733 79.161 52.0011 79.266 52.0698C79.3068 52.0876 79.3401 52.1191 79.3599 52.1589C79.3798 52.1987 79.3851 52.2443 79.3748 52.2876C79.3424 52.3974 79.2682 52.4902 79.1681 52.5456L75.4931 54.9122C75.3716 54.9962 75.2258 55.0378 75.0783 55.0305C74.9248 55.0357 74.7732 54.9945 74.6435 54.9122L71.8973 53.1114C71.7674 53.0331 71.6616 52.9206 71.5912 52.7861C71.5083 52.6517 71.462 52.4979 71.457 52.34V45.8892C71.4621 45.7317 71.5083 45.5783 71.5912 45.4444C71.6647 45.3064 71.7696 45.1877 71.8973 45.0977L73.5375 44.0306C73.5429 44.031 73.5483 44.0302 73.5534 44.0283C73.5584 44.0265 73.5631 44.0236 73.567 44.0199C73.571 44.0163 73.5757 44.0137 73.5808 44.0121C73.5859 44.0105 73.5912 44.0099 73.5965 44.0104L73.9522 43.7726L76.2044 42.3091C76.2638 42.2645 76.3306 42.2308 76.4017 42.2096C76.5289 42.1559 76.6667 42.1325 76.8044 42.1411C76.9401 42.1433 77.0728 42.1808 77.1896 42.2499L79.1654 43.5159C79.2927 43.6057 79.3975 43.724 79.4714 43.8613C79.5529 43.9951 79.5909 44.151 79.5801 44.3075V45.1971C79.5769 45.3527 79.5364 45.5053 79.462 45.6419C79.3939 45.7807 79.2919 45.9 79.1654 45.9887L74.7991 48.8109C74.6714 48.9009 74.5666 49.0196 74.4931 49.1576C74.4117 49.2947 74.3681 49.451 74.367 49.6105V49.6132ZM64.2547 47.7317C64.2475 47.7873 64.2564 47.8437 64.2801 47.8944C64.3039 47.9451 64.3416 47.988 64.3889 48.018C64.4392 48.0399 64.4947 48.047 64.549 48.0384C64.6032 48.0298 64.6538 48.006 64.6949 47.9696L66.1714 46.9993C66.283 46.9275 66.3753 46.8291 66.4398 46.713C66.5103 46.5937 66.5602 46.4633 66.5875 46.3273V45.22C66.5819 45.0621 66.5357 44.9084 66.4532 44.7738C66.3793 44.6361 66.274 44.5178 66.1459 44.4284L65.554 44.0521C65.4257 43.9747 65.2789 43.9338 65.1291 43.9338C64.9794 43.9338 64.8325 43.9747 64.7043 44.0521C64.6866 44.0598 64.6699 44.0698 64.6547 44.0817C64.6398 44.0941 64.623 44.1041 64.605 44.1112C64.4919 44.1871 64.4029 44.294 64.3486 44.419C64.284 44.5513 64.2501 44.6964 64.2493 44.8437L64.2547 47.7317ZM64.2547 49.6132V51.414C64.2845 51.5538 64.3381 51.6875 64.4131 51.8091C64.4821 51.928 64.5782 52.0288 64.6936 52.1034L66.1365 53.0334C66.2629 53.1143 66.4106 53.1555 66.5606 53.1517C66.711 53.1552 66.8591 53.1141 66.9861 53.0334L68.4075 52.1236C68.5278 52.0447 68.6666 51.9983 68.8102 51.9892C68.9343 51.9708 69.0608 51.9985 69.1659 52.0672C69.2063 52.0853 69.2392 52.1169 69.259 52.1566C69.2788 52.1963 69.2843 52.2416 69.2746 52.2849C69.2412 52.3946 69.1666 52.4871 69.0665 52.5429L65.3808 54.9122C65.2593 54.9962 65.1135 55.0378 64.9661 55.0305C64.8126 55.0354 64.6611 54.9942 64.5312 54.9122L61.7863 53.1114C61.6558 53.0336 61.5494 52.921 61.479 52.7861C61.3989 52.6509 61.355 52.4972 61.3515 52.34V45.8892C61.355 45.7324 61.3989 45.5792 61.479 45.4444C61.5526 45.3061 61.6579 45.1872 61.7863 45.0977L63.4252 44.0306C63.4306 44.031 63.436 44.0302 63.4411 44.0283C63.4462 44.0265 63.4508 44.0236 63.4547 44.0199C63.463 44.013 63.4736 44.0097 63.4842 44.0104L63.8399 43.7726L66.0922 42.3091C66.1517 42.2647 66.2185 42.2311 66.2895 42.2096C66.4167 42.1561 66.5545 42.1326 66.6922 42.1411C66.8278 42.1431 66.9606 42.1807 67.0774 42.2499L69.0531 43.5159C69.1805 43.6057 69.2852 43.724 69.3591 43.8613C69.4407 43.9951 69.4787 44.151 69.4679 44.3075V45.1971C69.4653 45.3528 69.4247 45.5055 69.3497 45.6419C69.2817 45.7807 69.1796 45.9 69.0531 45.9887L64.6869 48.8109C64.5592 48.9009 64.4543 49.0196 64.3809 49.1576C64.2994 49.2947 64.2559 49.451 64.2547 49.6105V49.6132ZM62.0092 43.4003C62.061 43.4285 62.1046 43.4697 62.1356 43.5199C62.1667 43.5701 62.1842 43.6276 62.1863 43.6866C62.1854 43.7436 62.1682 43.7992 62.1369 43.8468C62.1055 43.8944 62.0612 43.9321 62.0092 43.9553L60.824 44.7267C60.6921 44.8043 60.542 44.8451 60.3891 44.8451C60.2362 44.8451 60.0861 44.8043 59.9542 44.7267L58.7462 43.9204C58.6198 43.8385 58.4727 43.7942 58.3221 43.7927C58.1724 43.7824 58.0234 43.8201 57.8966 43.9002L57.1463 44.376C57.0201 44.4645 56.9181 44.5832 56.8497 44.7214C56.7765 44.86 56.7309 45.0115 56.7154 45.1675V54.7603C56.7154 54.9055 56.6725 54.9982 56.5812 55.0372C56.5309 55.0561 56.4767 55.0625 56.4234 55.0557C56.3701 55.0489 56.3192 55.0292 56.2752 54.9982L54.2404 53.6919C54.1139 53.6038 54.0119 53.4849 53.9438 53.3466C53.8694 53.2099 53.8289 53.0573 53.8256 52.9017V42.5537C53.8256 42.4085 53.8686 42.3158 53.9599 42.2768C54.0081 42.258 54.0608 42.2536 54.1115 42.2641C54.1623 42.2746 54.2089 42.2995 54.2458 42.3359L56.3007 43.7202L56.3208 43.7403C56.434 43.8087 56.5631 43.8463 56.6953 43.8492C56.8269 43.8595 56.9585 43.828 57.0711 43.7591C57.083 43.7479 57.0961 43.738 57.1101 43.7296C57.125 43.722 57.1386 43.712 57.1503 43.7L59.4227 42.2365C59.5565 42.1672 59.7057 42.1334 59.8562 42.1384C60.0098 42.1331 60.1613 42.1743 60.2911 42.2567L62.0092 43.4003ZM49.6057 54.7536C49.6057 54.8988 49.5655 54.9915 49.4863 55.0305C49.4363 55.0485 49.3824 55.0525 49.3304 55.0421C49.2783 55.0317 49.2301 55.0072 49.191 54.9713L47.1105 53.6059C46.9811 53.5144 46.8761 53.3926 46.8045 53.2511C46.7222 53.113 46.6761 52.9563 46.6703 52.7956L46.6515 45.5156C46.6524 45.4478 46.6397 45.3806 46.6142 45.3178C46.5887 45.255 46.5508 45.198 46.5029 45.1501C46.4549 45.1022 46.3979 45.0645 46.3351 45.0391C46.2723 45.0137 46.2051 45.0012 46.1374 45.0022H43.8731C43.7281 45.0022 43.649 44.9727 43.6369 44.9136C43.6248 44.8544 43.6758 44.7913 43.7939 44.7254L44.9402 43.9728C45.0806 43.8836 45.2342 43.817 45.3952 43.7753C45.5554 43.7263 45.7216 43.6997 45.8891 43.696H46.1455C46.2132 43.6971 46.2804 43.6845 46.3432 43.6591C46.4059 43.6337 46.463 43.596 46.5109 43.5481C46.5589 43.5002 46.5967 43.4432 46.6222 43.3804C46.6478 43.3177 46.6605 43.2504 46.6596 43.1826L46.6783 40.9275C46.6832 40.77 46.7295 40.6166 46.8126 40.4827C46.886 40.3447 46.9909 40.226 47.1186 40.136L49.1534 38.8297C49.1949 38.7941 49.245 38.77 49.2986 38.7596C49.3522 38.7493 49.4077 38.753 49.4594 38.7706C49.5453 38.8109 49.5936 38.9049 49.5936 39.0474L49.5735 43.1826C49.5726 43.2504 49.5853 43.3177 49.6108 43.3804C49.6363 43.4432 49.6742 43.5002 49.7221 43.5481C49.7701 43.596 49.8271 43.6337 49.8899 43.6591C49.9527 43.6845 50.0199 43.6971 50.0876 43.696H53.5451C53.6901 43.696 53.772 43.7229 53.7921 43.7753C53.8122 43.8277 53.7626 43.8935 53.6431 43.9728L52.517 44.7254C52.3803 44.8048 52.2348 44.868 52.0834 44.9136C51.9243 44.9682 51.7577 44.9981 51.5895 45.0022H50.0768C50.0091 45.0012 49.9419 45.0137 49.8791 45.0391C49.8164 45.0645 49.7593 45.1022 49.7114 45.1501C49.6635 45.198 49.6256 45.255 49.6001 45.3178C49.5745 45.3806 49.5619 45.4478 49.5628 45.5156L49.6057 54.7536ZM43.1631 54.7536C43.1765 54.8988 43.1403 54.9942 43.0544 55.0412C43.0051 55.0634 42.9509 55.0723 42.8972 55.0669C42.8435 55.0614 42.7921 55.0419 42.7483 55.0103L40.6934 53.7457C40.5657 53.6557 40.4609 53.5369 40.3874 53.399C40.3045 53.265 40.2582 53.1116 40.2531 52.9541V45.1998C40.2474 45.0391 40.2012 44.8824 40.1189 44.7442C40.0512 44.6052 39.945 44.4885 39.8129 44.4082L39.221 44.0333C39.0912 43.9508 38.9397 43.9092 38.7861 43.9137C38.635 43.909 38.4853 43.9433 38.3512 44.0131L37.5808 44.5077C37.4487 44.588 37.3425 44.7046 37.2748 44.8437C37.1925 44.9818 37.1463 45.1385 37.1405 45.2993L37.1204 54.7536C37.1204 54.8988 37.0788 54.9915 36.9929 55.0305C36.9426 55.0495 36.8884 55.0559 36.835 55.0491C36.7817 55.0424 36.7308 55.0226 36.6869 54.9915L34.6735 53.7054C34.5415 53.6251 34.4352 53.5085 34.3675 53.3694C34.2851 53.2313 34.239 53.0746 34.2333 52.9138V42.6477C34.226 42.5922 34.2347 42.5356 34.2585 42.4849C34.2823 42.4342 34.3201 42.3913 34.3675 42.3615C34.4179 42.3396 34.4736 42.3326 34.5278 42.3414C34.582 42.3503 34.6326 42.3745 34.6735 42.4112L36.7245 43.6772C36.8563 43.7547 37.0064 43.7955 37.1593 43.7955C37.3122 43.7955 37.4624 43.7547 37.5942 43.6772L39.8854 42.2325C40.0213 42.1679 40.1698 42.1344 40.3203 42.1344C40.4707 42.1344 40.6192 42.1679 40.7551 42.2325L42.7309 43.4984C42.8598 43.5756 42.963 43.6892 43.0275 43.825C43.1025 43.9614 43.143 44.1141 43.1456 44.2698L43.1631 54.7536ZM27.0471 47.7317C27.0399 47.7873 27.0487 47.8437 27.0725 47.8944C27.0963 47.9451 27.134 47.988 27.1813 48.018C27.2316 48.0399 27.2871 48.047 27.3413 48.0384C27.3955 48.0298 27.4462 48.006 27.4873 47.9696L28.9637 46.9993C29.0754 46.9275 29.1676 46.8291 29.2322 46.713C29.3027 46.5937 29.3526 46.4633 29.3798 46.3273V45.22C29.3763 45.0627 29.3324 44.9091 29.2523 44.7738C29.1784 44.6361 29.0731 44.5178 28.945 44.4284L28.353 44.0521C28.2248 43.9747 28.0779 43.9338 27.9282 43.9338C27.7785 43.9338 27.6316 43.9747 27.5034 44.0521C27.4857 44.0598 27.469 44.0698 27.4538 44.0817C27.4389 44.0941 27.4221 44.1041 27.4041 44.1112C27.291 44.1871 27.202 44.294 27.1477 44.419C27.0831 44.5513 27.0492 44.6964 27.0484 44.8437L27.0471 47.7317ZM27.0471 49.6132V51.414C27.0769 51.5538 27.1305 51.6875 27.2054 51.8091C27.273 51.9285 27.3678 52.0303 27.4819 52.1061L28.9248 53.0361C29.053 53.1135 29.1999 53.1544 29.3496 53.1544C29.4993 53.1544 29.6462 53.1135 29.7744 53.0361L31.1959 52.1263C31.3142 52.0484 31.4505 52.0022 31.5918 51.9919C31.7159 51.9734 31.8425 52.0012 31.9475 52.0698C31.9879 52.088 32.0209 52.1196 32.0407 52.1593C32.0605 52.199 32.066 52.2443 32.0562 52.2876C32.0228 52.3973 31.9482 52.4898 31.8482 52.5456L28.1732 54.9122C28.0517 54.9962 27.9059 55.0378 27.7584 55.0305C27.6053 55.0356 27.4542 54.9944 27.3249 54.9122L24.5787 53.1114C24.4482 53.0336 24.3417 52.921 24.2714 52.7861C24.1889 52.6515 24.1427 52.4978 24.1371 52.34V45.8892C24.1427 45.7318 24.189 45.5786 24.2714 45.4444C24.3449 45.3061 24.4503 45.1872 24.5787 45.0977L26.2176 44.0306C26.223 44.031 26.2284 44.0302 26.2335 44.0283C26.2386 44.0265 26.2432 44.0236 26.2471 44.0199C26.2554 44.013 26.2659 44.0097 26.2766 44.0104L26.6323 43.7726L28.8846 42.3091C28.9441 42.2647 29.0108 42.2311 29.0819 42.2096C29.209 42.1561 29.3468 42.1326 29.4845 42.1411C29.6202 42.1431 29.753 42.1807 29.8697 42.2499L31.8455 43.5159C31.9732 43.6053 32.078 43.7237 32.1515 43.8613C32.233 43.9951 32.271 44.151 32.2602 44.3075V45.1971C32.2577 45.3528 32.2171 45.5055 32.1421 45.6419C32.074 45.7807 31.972 45.9 31.8455 45.9887L27.4793 48.8109C27.3515 48.9009 27.2467 49.0196 27.1732 49.1576C27.0918 49.2947 27.0482 49.451 27.0471 49.6105V49.6132ZM21.7426 54.7536C21.7426 54.8988 21.7037 54.9915 21.6245 55.0305C21.5743 55.0485 21.5203 55.0525 21.468 55.042C21.4158 55.0316 21.3673 55.0072 21.3279 54.9713L19.2864 53.6059C19.1584 53.5168 19.0535 53.3984 18.9803 53.2605C18.8997 53.126 18.8557 52.9726 18.8528 52.8157V39.3847C18.8557 39.2274 18.8997 39.0736 18.9803 38.9385C19.0542 38.8012 19.159 38.683 19.2864 38.5932L21.3399 37.2089C21.3838 37.1778 21.4346 37.1578 21.488 37.1508C21.5413 37.1437 21.5955 37.1499 21.646 37.1686C21.7319 37.2089 21.7802 37.303 21.7802 37.4455L21.7426 54.7536ZM16.4315 47.2761C16.5514 47.3731 16.6493 47.4945 16.7187 47.6323C16.801 47.7704 16.8471 47.9271 16.8529 48.0879V50.6655C16.8471 50.8262 16.801 50.9829 16.7187 51.1211C16.6496 51.259 16.5516 51.3805 16.4315 51.4772L11.5418 54.9122C11.424 54.9946 11.2826 55.0361 11.1391 55.0305C10.989 55.0349 10.8411 54.9937 10.715 54.9122L7.55537 52.6813C7.42709 52.5906 7.32481 52.4678 7.25874 52.3252C7.18434 52.1847 7.14389 52.0286 7.14062 51.8696V41.8562C7.14321 41.7005 7.18376 41.5478 7.25874 41.4113C7.32983 41.2693 7.43107 41.1445 7.55537 41.0458L12.8102 37.3272C12.9364 37.2459 13.0842 37.2047 13.2343 37.2089C13.3778 37.2031 13.5193 37.2446 13.637 37.3272L15.6355 38.7316C15.6827 38.7679 15.7212 38.8142 15.7484 38.8672C15.7755 38.9201 15.7906 38.9785 15.7926 39.038C15.7918 39.0949 15.777 39.1508 15.7497 39.2007C15.7223 39.2506 15.6831 39.293 15.6355 39.3242L14.2329 40.3174C14.1153 40.4003 13.9739 40.4423 13.8302 40.437C13.6796 40.4408 13.5314 40.3991 13.4048 40.3174L12.0625 39.3686C11.9448 39.2862 11.8034 39.2447 11.6599 39.2503C11.5094 39.2461 11.3612 39.2873 11.2344 39.3686L10.5244 39.8632C10.4042 39.9598 10.3062 40.0813 10.2371 40.2193C10.1549 40.357 10.1087 40.5132 10.1029 40.6735V50.8415C10.1079 50.999 10.1542 51.1524 10.2371 51.2864C10.3112 51.4238 10.4084 51.5475 10.5244 51.6519L12.3015 52.899C12.4192 52.9814 12.5606 53.023 12.7041 53.0173C12.8542 53.0217 13.0021 52.9805 13.1283 52.899L13.4652 52.6612C13.5846 52.5641 13.682 52.4427 13.751 52.305C13.8332 52.1673 13.8793 52.0111 13.8853 51.8508V49.1159C13.8802 48.9585 13.8339 48.8051 13.751 48.6711C13.6779 48.5333 13.573 48.4149 13.445 48.3257L12.8128 47.85C12.7593 47.8236 12.7143 47.7827 12.6828 47.732C12.6513 47.6813 12.6346 47.6228 12.6346 47.5631C12.6346 47.5033 12.6513 47.4448 12.6828 47.3941C12.7143 47.3434 12.7593 47.3025 12.8128 47.2761L16.0342 45.0022C16.139 44.9101 16.2709 44.8545 16.41 44.8437C16.5342 44.8257 16.6608 44.8539 16.7657 44.923C16.8071 44.9478 16.8398 44.985 16.8593 45.0293C16.8788 45.0736 16.884 45.1228 16.8744 45.1702C16.8412 45.2874 16.7675 45.3889 16.6663 45.4565L15.6785 46.1486C15.6249 46.1775 15.5802 46.2203 15.549 46.2726C15.5178 46.3249 15.5013 46.3847 15.5013 46.4456C15.5013 46.5065 15.5178 46.5663 15.549 46.6186C15.5802 46.6709 15.6249 46.7137 15.6785 46.7426L16.4315 47.2761Z" fill="white"/>
</g>
</svg>
