<svg width="383" height="88" viewBox="0 0 383 88" fill="none" xmlns="http://www.w3.org/2000/svg">
<g clip-path="url(#clip0_3739_1838)">
<g filter="url(#filter0_d_3739_1838)">
<path d="M84.8976 5.84082C85.4632 5.38976 86.2656 5.38976 86.8312 5.84082L89.4974 7.96708C89.8903 8.28038 90.4106 8.38388 90.8935 8.24477L94.1704 7.30071C94.8656 7.10043 95.6069 7.40748 95.9568 8.04066L97.6064 11.0254C97.8495 11.4652 98.2906 11.76 98.7899 11.8162L102.179 12.1981C102.898 12.2791 103.465 12.8464 103.546 13.5653L103.928 16.9542C103.984 17.4535 104.279 17.8946 104.719 18.1377L107.703 19.7873C108.336 20.1373 108.644 20.8785 108.443 21.5737L107.499 24.8507C107.36 25.3336 107.464 25.8539 107.777 26.2468L109.903 28.9131C110.354 29.4787 110.354 30.281 109.903 30.8466L107.777 33.5129C107.464 33.9058 107.36 34.4261 107.499 34.909L108.443 38.186C108.644 38.8812 108.336 39.6225 107.703 39.9724L104.719 41.622C104.279 41.8651 103.984 42.3062 103.928 42.8055L103.546 46.1944C103.465 46.9133 102.898 47.4807 102.179 47.5617L98.7899 47.9435C98.2906 47.9998 97.8495 48.2945 97.6064 48.7343L95.9568 51.7191C95.6069 52.3522 94.8656 52.6593 94.1704 52.459L90.8935 51.5149C90.4106 51.3758 89.8903 51.4793 89.4974 51.7926L86.8312 53.9189C86.2656 54.37 85.4632 54.37 84.8976 53.9189L82.2314 51.7926C81.8385 51.4793 81.3182 51.3758 80.8353 51.5149L77.5584 52.459C76.8632 52.6593 76.1219 52.3522 75.772 51.7191L74.1224 48.7343C73.8793 48.2945 73.4382 47.9998 72.9389 47.9435L69.5501 47.5617C68.8312 47.4807 68.2638 46.9133 68.1828 46.1944L67.801 42.8055C67.7447 42.3062 67.45 41.8651 67.0102 41.622L64.0255 39.9724C63.3923 39.6225 63.0853 38.8812 63.2855 38.186L64.2296 34.909C64.3687 34.4261 64.2652 33.9058 63.9519 33.5129L61.8257 30.8466C61.3746 30.281 61.3746 29.4787 61.8257 28.9131L63.9519 26.2468C64.2652 25.8539 64.3687 25.3336 64.2296 24.8507L63.2855 21.5737C63.0853 20.8785 63.3923 20.1373 64.0255 19.7873L67.0102 18.1377C67.45 17.8946 67.7447 17.4535 67.801 16.9542L68.1828 13.5653C68.2638 12.8464 68.8312 12.2791 69.5501 12.1981L72.9389 11.8162C73.4382 11.76 73.8793 11.4652 74.1224 11.0254L75.772 8.04066C76.1219 7.40748 76.8632 7.10043 77.5584 7.30071L80.8353 8.24477C81.3182 8.38388 81.8385 8.28038 82.2314 7.96708L84.8976 5.84082Z" fill="url(#paint0_linear_3739_1838)"/>
<g filter="url(#filter1_d_3739_1838)">
<path d="M85.8514 49.2696C96.5561 49.2696 105.234 40.5916 105.234 29.8867C105.234 19.1819 96.5561 10.5039 85.8514 10.5039C75.1466 10.5039 66.4688 19.1819 66.4688 29.8867C66.4688 40.5916 75.1466 49.2696 85.8514 49.2696Z" fill="url(#paint1_linear_3739_1838)"/>
<path opacity="0.18" d="M85.8536 46.9517C95.2737 46.9517 102.91 39.3151 102.91 29.8948C102.91 20.4745 95.2737 12.8379 85.8536 12.8379C76.4334 12.8379 68.7969 20.4745 68.7969 29.8948C68.7969 39.3151 76.4334 46.9517 85.8536 46.9517Z" fill="url(#paint2_radial_3739_1838)" fill-opacity="0.5"/>
</g>
<path d="M102.149 29.8317C102.149 30.499 102.111 31.1663 102.034 31.8145C101.958 32.539 101.805 33.2634 101.633 33.9498C101.557 34.2548 101.481 34.5408 101.385 34.8458C101.213 35.3796 101.023 35.9135 100.794 36.4282C100.297 37.553 99.6865 38.6016 98.9612 39.5739C98.3504 40.3937 97.6632 41.1563 96.8998 41.8617C94.0176 44.5308 90.162 46.1513 85.9247 46.1704C81.6873 46.1895 77.8126 44.588 74.9114 41.938C74.167 41.2516 73.4799 40.5081 72.8691 39.7074C71.7238 38.2013 70.8458 36.4854 70.2923 34.6552C70.0251 33.7973 69.8342 32.9012 69.7197 31.9861C69.6433 31.3188 69.5861 30.6515 69.5861 29.9843C69.5479 20.9475 76.801 13.6456 85.8101 13.6075C94.8002 13.5884 102.111 20.8331 102.149 29.8317Z" fill="#FCFCFC"/>
<path d="M78.1484 27.4678L77.1015 25.5235H76.9445V27.4678H75.4788V22.1958H77.7895C78.2132 22.1958 78.5722 22.2706 78.8663 22.4202C79.1604 22.5647 79.3823 22.7666 79.5318 23.0259C79.6814 23.2801 79.7562 23.5668 79.7562 23.8858C79.7562 24.2448 79.6565 24.5613 79.457 24.8355C79.2626 25.1047 78.976 25.2967 78.5971 25.4113L79.7861 27.4678H78.1484ZM76.9445 24.5215H77.6698C77.8692 24.5215 78.0188 24.4741 78.1185 24.3794C78.2182 24.2847 78.2681 24.1476 78.2681 23.9681C78.2681 23.7986 78.2157 23.6665 78.111 23.5718C78.0113 23.4721 77.8642 23.4222 77.6698 23.4222H76.9445V24.5215ZM83.7579 26.6078H81.8884L81.6042 27.4678H80.0638L81.9856 22.1958H83.6756L85.59 27.4678H84.042L83.7579 26.6078ZM83.3914 25.4861L82.8231 23.7811L82.2623 25.4861H83.3914ZM90.9508 27.4678H89.4851L87.5334 24.5215V27.4678H86.0677V22.1958H87.5334L89.4851 25.1795V22.1958H90.9508V27.4678ZM94.904 27.4678L93.2514 25.1571V27.4678H91.7857V22.1958H93.2514V24.4691L94.889 22.1958H96.5791L94.6423 24.7533L96.6763 27.4678H94.904ZM83.2073 32.9859V30.1328H87.9832V41.4678H84.8044V32.9859H83.2073Z" fill="url(#paint3_linear_3739_1838)"/>
</g>
<path d="M54.8021 61.0261V68.6777H52.6749V61.0261H54.8021ZM63.1008 68.6777H60.9735L58.1408 64.4015V68.6777H56.0135V61.0261H58.1408L60.9735 65.3566V61.0261H63.1008V68.6777ZM70.0757 61.0261V62.7192H68.0353V68.6777H65.908V62.7192H63.8893V61.0261H70.0757ZM72.99 62.7301V63.9782H75.432V65.5954H72.99V66.9738H75.7576V68.6777H70.8627V61.0261H75.7576V62.7301H72.99ZM81.6928 63.5441C81.5698 63.3415 81.3998 63.1859 81.1827 63.0774C80.9729 62.9689 80.7232 62.9146 80.4338 62.9146C79.8984 62.9146 79.4751 63.0882 79.164 63.4356C78.8601 63.7829 78.7081 64.2496 78.7081 64.8356C78.7081 65.4941 78.8709 65.9969 79.1965 66.3443C79.5294 66.6843 80.0105 66.8544 80.64 66.8544C81.3853 66.8544 81.9171 66.5179 82.2355 65.845H80.0974V64.3147H84.0697V66.3768C83.9033 66.782 83.6573 67.1619 83.3317 67.5164C83.0133 67.871 82.6081 68.164 82.1161 68.3955C81.6241 68.6198 81.0633 68.732 80.4338 68.732C79.6668 68.732 78.9867 68.5692 78.3934 68.2436C77.8073 67.9108 77.3515 67.4513 77.0259 66.8652C76.7075 66.2719 76.5483 65.5954 76.5483 64.8356C76.5483 64.0831 76.7075 63.4138 77.0259 62.8278C77.3515 62.2344 77.8073 61.775 78.3934 61.4494C78.9795 61.1165 79.656 60.9501 80.423 60.9501C81.3853 60.9501 82.1812 61.1817 82.8107 61.6447C83.4402 62.1078 83.8309 62.7409 83.9829 63.5441H81.6928ZM88.8977 68.6777L87.3782 65.8559H87.1503V68.6777H85.023V61.0261H88.3767C88.9917 61.0261 89.5127 61.1346 89.9396 61.3517C90.3665 61.5615 90.6885 61.8546 90.9055 62.2308C91.1226 62.5998 91.2311 63.0159 91.2311 63.479C91.2311 63.9999 91.0864 64.4594 90.797 64.8573C90.5148 65.2481 90.0988 65.5266 89.5489 65.6931L91.2746 68.6777H88.8977ZM87.1503 64.4015H88.2031C88.4925 64.4015 88.7095 64.3328 88.8543 64.1953C88.999 64.0578 89.0713 63.8588 89.0713 63.5984C89.0713 63.3523 88.9954 63.1606 88.8434 63.0231C88.6987 62.8784 88.4852 62.8061 88.2031 62.8061H87.1503V64.4015ZM97.0391 67.4296H94.3258L93.9134 68.6777H91.6776L94.4669 61.0261H96.9198L99.6982 68.6777H97.4516L97.0391 67.4296ZM96.5073 65.8016L95.6825 63.327L94.8685 65.8016H96.5073ZM106.155 61.0261V62.7192H104.114V68.6777H101.987V62.7192H99.9683V61.0261H106.155ZM109.069 62.7301V63.9782H111.511V65.5954H109.069V66.9738H111.837V68.6777H106.942V61.0261H111.837V62.7301H109.069ZM115.916 61.0261C116.719 61.0261 117.421 61.1889 118.021 61.5145C118.629 61.8329 119.096 62.2815 119.422 62.8603C119.747 63.4392 119.91 64.1012 119.91 64.8465C119.91 65.5845 119.744 66.243 119.411 66.8218C119.085 67.4007 118.618 67.8565 118.011 68.1893C117.41 68.5149 116.712 68.6777 115.916 68.6777H112.888V61.0261H115.916ZM115.753 66.8001C116.375 66.8001 116.864 66.6301 117.218 66.29C117.573 65.9499 117.75 65.4688 117.75 64.8465C117.75 64.217 117.573 63.7322 117.218 63.3921C116.864 63.0448 116.375 62.8712 115.753 62.8712H115.015V66.8001H115.753ZM61.5007 80.0497H63.8776V81.6777H59.3734V74.0261H61.5007V80.0497ZM66.832 75.7301V76.9782H69.274V78.5954H66.832V79.9738H69.5996V81.6777H64.7047V74.0261H69.5996V75.7301H66.832ZM75.4914 80.4296H72.778L72.3656 81.6777H70.1298L72.9191 74.0261H75.372L78.1505 81.6777H75.9038L75.4914 80.4296ZM74.9596 78.8016L74.1347 76.327L73.3207 78.8016H74.9596ZM82.7185 81.6777L81.199 78.8559H80.9711V81.6777H78.8438V74.0261H82.1975C82.8125 74.0261 83.3335 74.1346 83.7604 74.3517C84.1873 74.5615 84.5093 74.8546 84.7263 75.2308C84.9434 75.5998 85.0519 76.0159 85.0519 76.479C85.0519 76.9999 84.9072 77.4594 84.6178 77.8573C84.3356 78.2481 83.9196 78.5266 83.3697 78.6931L85.0953 81.6777H82.7185ZM80.9711 77.4015H82.0238C82.3133 77.4015 82.5303 77.3328 82.675 77.1953C82.8198 77.0578 82.8921 76.8588 82.8921 76.5984C82.8921 76.3523 82.8161 76.1606 82.6642 76.0231C82.5195 75.8784 82.306 75.8061 82.0238 75.8061H80.9711V77.4015ZM93.1066 81.6777H90.9793L88.1466 77.4015V81.6777H86.0193V74.0261H88.1466L90.9793 78.3566V74.0261H93.1066V81.6777ZM96.4456 74.0261V81.6777H94.3183V74.0261H96.4456ZM104.744 81.6777H102.617L99.7843 77.4015V81.6777H97.657V74.0261H99.7843L102.617 78.3566V74.0261H104.744V81.6777ZM110.84 76.5441C110.717 76.3415 110.547 76.1859 110.33 76.0774C110.12 75.9689 109.871 75.9146 109.581 75.9146C109.046 75.9146 108.622 76.0882 108.311 76.4356C108.007 76.7829 107.855 77.2496 107.855 77.8356C107.855 78.4941 108.018 78.9969 108.344 79.3443C108.677 79.6843 109.158 79.8544 109.787 79.8544C110.533 79.8544 111.064 79.5179 111.383 78.845H109.245V77.3147H113.217V79.3768C113.051 79.782 112.805 80.1619 112.479 80.5164C112.161 80.871 111.755 81.164 111.263 81.3955C110.771 81.6198 110.211 81.732 109.581 81.732C108.814 81.732 108.134 81.5692 107.541 81.2436C106.955 80.9108 106.499 80.4513 106.173 79.8652C105.855 79.2719 105.696 78.5954 105.696 77.8356C105.696 77.0831 105.855 76.4138 106.173 75.8278C106.499 75.2344 106.955 74.775 107.541 74.4494C108.127 74.1165 108.803 73.9501 109.57 73.9501C110.533 73.9501 111.328 74.1817 111.958 74.6447C112.587 75.1078 112.978 75.7409 113.13 76.5441H110.84Z" fill="url(#paint4_linear_3739_1838)"/>
<path d="M35.2651 2.35553C35.9828 2.08546 36.6679 1.8225 36.7875 1.75854C37.0539 1.63062 37.0431 1.63062 37.1355 1.7088C37.3965 1.922 36.5102 3.52818 35.1564 5.30492C33.8406 7.03191 32.9 7.72128 31.6223 7.89896C31.3124 7.94871 31.0351 7.96292 31.0024 7.9416C30.9753 7.92028 30.5783 8.26852 30.1216 8.72337C29.7245 9.11427 29.2711 9.5629 29.0237 9.80764L28.92 9.91023C28.7189 10.1092 28.5612 10.2798 28.5666 10.2869C28.5721 10.294 28.7243 10.2585 28.9037 10.2016C29.3604 10.0524 30.9589 9.98841 31.6331 10.095C31.9268 10.1448 32.4324 10.2585 32.7586 10.358C33.9276 10.6991 35.7653 11.6088 35.7164 11.822C35.6784 11.9641 35.3576 12.085 35.015 12.085C34.6399 12.0921 33.6503 12.2271 31.8398 12.5185C29.5181 12.8951 27.9631 12.8809 26.892 12.4758C26.6277 12.3765 26.3281 12.4444 26.1308 12.6464C25.7393 13.0373 24.7172 14.1602 24.3366 14.615L24.2122 14.7614C24.181 14.798 24.2234 14.8508 24.2659 14.8282C24.6465 14.6292 25.424 14.3592 25.9405 14.2526C27.0605 14.0181 29.6323 14.0038 30.1162 14.2242C30.3011 14.3166 30.3446 14.5013 30.2141 14.6435C30.176 14.6861 29.6269 15.0272 29.007 15.3897C28.3818 15.7593 27.4575 16.3136 26.9464 16.6263C25.1684 17.7279 23.5808 18.2751 22.1672 18.2751C21.6561 18.2751 21.6452 18.2822 21.5038 18.4883C20.9275 19.327 19.2202 22.4753 19.454 22.255C19.5138 22.1982 19.7585 21.9707 19.9923 21.7504C21.1939 20.6275 22.6347 19.8102 24.3909 19.263C25.2119 19.0071 25.7393 18.9574 25.7665 19.1351C25.7883 19.2772 25.6197 19.4904 24.7715 20.393C24.3855 20.8123 23.7493 21.5159 23.3579 21.9707C22.4988 22.9728 21.9388 23.5414 21.0471 24.3374C19.7803 25.4603 18.4645 26.3771 17.8882 26.5334C17.6909 26.5868 17.533 26.7344 17.4665 26.9276L17.3281 27.3294C16.9203 28.5447 16.0993 31.3946 16.0993 31.622C16.0993 31.6433 16.2026 31.4728 16.3277 31.2382C16.7137 30.5204 17.3064 29.6392 17.7033 29.1914C18.334 28.4878 20.188 26.9812 21.444 26.1567C22.1237 25.709 22.2976 25.6308 22.2976 25.7872C22.2976 25.8511 22.0203 26.3842 21.6832 26.974C21.3407 27.5639 20.6991 28.7508 20.2587 29.6107C18.5732 32.8728 17.6326 34.2871 16.2951 35.5948C15.7514 36.1278 15.4034 36.3979 15.2675 36.3979C15.1859 36.3979 15.0119 37.7482 14.8706 39.4894C14.7944 40.4488 14.6694 43.2987 14.7074 43.3414C14.7183 43.3556 14.7673 43.1211 14.8216 42.8155C15.1261 40.989 15.697 39.4112 16.5234 38.1035C17.0889 37.2081 19.4975 34.1236 19.6335 34.1236C19.6552 34.1236 19.6552 34.2587 19.6226 34.4221C19.5628 34.7775 19.0299 37.1015 18.7037 38.4305C18.5841 38.9351 18.4536 39.461 18.4264 39.596C18.3068 40.129 17.7305 42.1545 17.5674 42.6094C17.3499 43.2063 16.6539 44.5638 15.8547 45.9567C15.1152 47.236 14.9956 47.3995 14.876 47.2715C14.8053 47.1933 14.7999 47.2076 14.8216 47.3852C14.8325 47.4989 14.8706 47.9254 14.9032 48.3376C15.0174 49.7519 15.2838 51.7276 15.5665 53.2414C15.5827 53.3289 15.7111 53.3193 15.7141 53.2303L15.7242 52.9216C15.8003 50.8179 16.1265 49.496 17.1813 47.0228C18.1111 44.8481 18.8886 43.4267 19.0354 43.6185C19.1713 43.7962 18.7635 51.3083 18.5189 53.1845C18.3177 54.7338 17.4423 57.0578 16.8388 57.6477C16.7252 57.7612 16.6843 57.9286 16.7328 58.0817L16.8877 58.5716C17.2466 59.7371 17.5402 60.5686 18.0023 61.7626C18.421 62.8358 19.0245 64.2216 18.9593 63.9445C18.9375 63.8734 18.8614 63.3475 18.7798 62.7718C18.5895 61.4002 18.5841 60.192 18.7527 58.8914C18.9266 57.5908 19.2257 55.8141 19.4214 54.9044C19.59 54.1297 19.9597 52.9287 20.0684 52.7865C20.1554 52.6728 20.2315 52.8647 20.2315 53.1774C20.2315 53.6678 20.4708 55.2598 20.9384 57.8609C21.4331 60.6397 21.618 62.3099 21.5745 63.582C21.5201 64.9892 21.2863 66.4959 20.9982 67.2705C20.8987 67.5304 20.9256 67.8218 21.0709 68.0591L21.2755 68.3934C21.7702 69.2036 22.8522 70.7956 23.2763 71.3286C23.3248 71.3907 23.4226 71.3358 23.3949 71.2621L23.3905 71.2504C23.0045 70.2341 22.8957 69.0899 22.8957 66.105C22.8957 63.9516 22.9501 61.9119 23.0099 61.9119C23.0316 61.9119 23.2818 62.5017 23.5699 63.2195C24.1082 64.577 24.603 65.7212 25.1521 66.8867C26.2885 69.2889 26.9735 72.4799 26.7615 74.3277C26.718 74.676 26.6854 75.01 26.6799 75.0882C26.6691 75.2943 28.1588 76.6162 29.7138 77.7888C29.7723 77.8334 29.8499 77.7659 29.8138 77.7018L29.7628 77.6111C28.9962 76.2324 28.5286 74.7897 28.0555 72.3804C27.8817 71.4841 27.6633 69.9618 27.6386 69.5182C27.634 69.4356 27.6701 69.4222 27.722 69.4867C28.2562 70.1496 31.3065 74.2207 31.8887 75.0597C33.1392 76.8578 33.634 78.0731 33.7591 79.6793L33.7796 79.9596C33.7904 80.1067 33.8805 80.2362 34.0146 80.2976C34.7921 80.6671 37.0974 81.4844 37.2062 81.4418C37.2334 81.4276 37.1355 81.2997 36.9887 81.1575C36.1024 80.2691 34.6616 77.9452 34.107 76.5167C33.9222 76.0263 33.6612 75.0953 33.6612 74.9176C33.6612 74.8821 34.0472 75.1095 34.5202 75.4151C34.9878 75.7207 35.8034 76.1826 36.3254 76.4385C38.212 77.3695 38.8482 77.7888 39.5822 78.5706C40.2129 79.2457 40.6587 80.0773 41.0611 81.3281C41.1861 81.7332 41.3166 82.1027 41.3438 82.1454C41.3721 82.1981 41.583 82.2235 42.1389 82.233C42.5313 82.2398 42.8499 82.556 42.8499 82.9485V83.0731C42.8499 83.3968 42.5875 83.6592 42.2638 83.6592C42.0633 83.6592 41.8767 83.7616 41.7692 83.9308L41.5939 84.2064C40.9795 85.1658 40.3597 85.8126 39.5604 86.3243C38.2284 87.1771 36.532 87.8167 34.9661 88.0655C33.5742 88.2787 30.3989 88.4422 30.3989 88.2929C30.3989 88.1863 31.2417 87.5964 33.5796 86.0826C36.7712 84.0074 37.2171 83.7516 38.2773 83.3891L38.2899 83.3848C38.3977 83.3481 38.3887 83.1927 38.2773 83.1688C37.5596 83.0195 36.1405 82.6002 35.3847 82.3231C34.9471 82.1608 34.4529 82.2848 34.1451 82.6358C33.0033 83.9577 31.7636 84.4907 29.6758 84.5618C28.4307 84.6044 27.7293 84.5333 26.6745 84.2562C25.9459 84.0643 21.7431 82.4368 21.7159 82.3373C21.705 82.3017 22.0965 82.1809 22.5858 82.0743C23.0697 81.9606 23.9668 81.7403 24.5812 81.591C26.6473 81.0793 27.4357 80.8946 27.9794 80.8093C28.795 80.6742 30.9481 80.6885 31.644 80.8377C31.7802 80.8658 31.908 80.8912 32.0094 80.9096C32.156 80.9362 32.1778 80.8842 32.0488 80.8098C32.0133 80.7893 31.974 80.7675 31.9322 80.7453C30.8611 80.1839 28.4035 78.4569 27.3759 77.5472C27.2128 77.3979 27.1475 77.3624 27.2073 77.4548C27.2998 77.5969 27.2998 77.604 26.8539 77.8528C26.6038 77.9878 26.2667 78.1513 26.1036 78.2152C25.2609 78.5422 23.8907 78.6345 22.8957 78.4356C22.0367 78.265 20.3783 77.5188 19.3997 76.8578C18.4047 76.1898 14.9576 73.0129 14.9576 72.7713C14.9576 72.5083 19.9108 73.1124 22.1345 73.6526C22.7217 73.7947 22.8305 73.8445 23.8744 74.5338C24.7878 75.1308 24.9455 75.2161 24.7443 75.0029C23.695 73.8729 22.3031 72.1032 21.357 70.6747C20.9656 70.0849 20.9112 70.028 20.7916 70.092C20.7209 70.1275 20.362 70.1773 19.9923 70.1986C19.4703 70.2341 19.2039 70.2199 18.7853 70.1204C18.1056 69.9641 17.1161 69.5732 16.6159 69.2747C15.4469 68.564 13.5222 66.3395 12.3097 64.2998C11.9563 63.7099 11.418 62.8358 11.1135 62.3525C10.3469 61.1514 10.3632 61.0661 11.2766 61.4926C11.5974 61.6418 12.3042 61.9119 12.8425 62.0895C14.1583 62.5302 14.7564 62.8073 15.8547 63.5109C16.8714 64.1648 17.5565 64.7049 18.1383 65.309C18.4482 65.6359 18.4971 65.6714 18.4101 65.5009C17.8936 64.4704 16.3168 60.5615 16.3168 60.2986C16.3168 60.2346 16.2407 60.2062 16.0613 60.2062C15.784 60.2062 14.9249 59.8437 14.2616 59.4529C13.5711 59.0407 12.8099 58.33 12.1574 57.47C11.505 56.6172 11.2005 56.077 10.6351 54.7694C10.1729 53.6891 8.1503 48.3447 8.17205 48.2594C8.18836 48.1883 9.38452 49.1051 10.2001 49.8158C13.3808 52.6017 13.8484 53.0779 14.4573 54.1297C14.5933 54.3643 14.7238 54.5846 14.7455 54.6201C14.7673 54.6486 14.7129 54.3216 14.6259 53.8881C14.4247 52.8576 14.18 51.3225 14.0332 50.1143C13.9912 49.775 13.9536 49.4742 13.9308 49.3034C13.9175 49.2042 13.8602 49.1391 13.7748 49.0868C13.5303 48.9371 13.0387 48.574 12.7283 48.3091C10.8906 46.7314 9.93911 44.4003 9.3084 39.9158C9.15616 38.8427 8.84625 36.7745 8.77557 36.341C8.75382 36.2344 8.77013 36.1847 8.82994 36.1847C8.96587 36.1847 10.7819 38.1178 11.1244 38.6224C11.7823 39.596 12.761 41.5007 13.3482 42.9434L13.409 43.0911C13.4618 43.2193 13.6526 43.1815 13.6526 43.0429C13.6526 42.1758 13.7451 40.2712 13.8429 39.0843C13.9463 37.8548 13.9463 37.9117 13.7994 37.8619C13.7288 37.8406 13.5222 37.6985 13.3373 37.5421C12.2118 36.5898 11.6464 35.1968 11.3963 32.7733C11.3038 31.8992 11.2929 29.5681 11.3691 28.1183C11.4017 27.571 11.4452 26.5405 11.4724 25.8227C11.4941 25.112 11.5322 24.5079 11.5539 24.4795C11.6192 24.3942 11.7932 24.6785 12.1574 25.4745C12.3586 25.908 12.7555 26.7182 13.0328 27.2725C13.7233 28.63 14.3051 30.4209 14.6041 32.0982C14.6694 32.489 14.7401 32.7591 14.7564 32.7023C14.7727 32.6454 14.876 32.1977 14.9847 31.7073C15.2403 30.5915 15.5502 29.4046 15.8384 28.4807C15.958 28.0827 16.0667 27.7132 16.083 27.6563C16.0993 27.5995 16.045 27.6563 15.958 27.7842C15.8899 27.8855 15.7368 27.8712 15.6886 27.7592L15.4088 27.1091C14.9576 26.0501 14.789 25.5313 14.6368 24.7211C14.2942 22.9018 14.4845 21.2387 15.5013 17.0669C16.1428 14.4445 16.219 14.1389 16.2625 14.2028C16.2842 14.2313 16.4364 14.8211 16.605 15.5034C17.4042 18.7868 17.5021 19.2985 17.5674 20.6702C17.6109 21.6083 17.5674 22.7952 17.4586 23.5272C17.4533 23.5688 17.4484 23.6093 17.4441 23.6477C17.4218 23.8447 17.4894 23.8693 17.5633 23.6854C17.5718 23.6643 17.5804 23.6423 17.5891 23.6196C17.9915 22.5891 19.068 20.4072 19.8618 19.0356L20.0512 18.7046C20.089 18.6385 19.9998 18.5739 19.9488 18.6305C19.6987 18.9005 19.5138 19.0569 19.4432 19.0427C19.0843 18.9716 18.7907 16.7969 18.9212 15.1836C19.1224 12.8028 19.5791 11.7012 21.9986 7.77814C22.2868 7.30197 22.4988 7.0177 22.5206 7.06744C22.5369 7.1172 22.5967 7.77814 22.6511 8.53858C22.8577 11.488 22.6184 13.6556 21.8681 15.5532C21.8279 15.6551 21.9657 15.7311 22.0304 15.6426L22.3248 15.2404C22.9283 14.416 23.8853 13.2434 24.5432 12.5114C24.6414 12.4051 24.6789 12.2561 24.6426 12.116L24.5812 11.8789C24.4127 11.2392 24.4127 10.2727 24.5758 9.50513C24.728 8.78733 25.1141 7.81367 25.5164 7.11008C25.8698 6.49889 26.7234 5.36888 27.2182 4.87139C27.8924 4.18202 29.7356 2.63981 29.877 2.63981C29.9205 2.63981 29.3224 5.56788 29.1484 6.22882C28.8711 7.24512 28.4198 8.33248 27.9468 9.12846C27.8652 9.2706 28.0664 9.12846 28.6373 8.63808L28.8526 8.45613C29.2728 8.10107 29.783 7.66992 30.0781 7.42279L30.3026 7.23975C30.5694 7.02212 30.7562 6.72185 30.8336 6.38629L30.8502 6.3141C31.1601 5.02064 31.731 4.18913 32.7641 3.50686C33.3948 3.09465 33.8025 2.90276 35.2651 2.35553Z" fill="url(#paint5_linear_3739_1838)"/>
<g filter="url(#filter2_d_3739_1838)">
<path d="M190.648 5.84131C191.213 5.39025 192.016 5.39025 192.581 5.84131L195.247 7.96757C195.64 8.28087 196.161 8.38437 196.643 8.24526L199.92 7.30119C200.616 7.10092 201.357 7.40797 201.707 8.04115L203.356 11.0259C203.599 11.4657 204.041 11.7604 204.54 11.8167L207.929 12.1985C208.648 12.2795 209.215 12.8469 209.296 13.5658L209.678 16.9547C209.734 17.454 210.029 17.8951 210.469 18.1382L213.453 19.7878C214.086 20.1377 214.394 20.879 214.193 21.5742L213.249 24.8512C213.11 25.3341 213.214 25.8544 213.527 26.2473L215.653 28.9136C216.104 29.4792 216.104 30.2815 215.653 30.8471L213.527 33.5134C213.214 33.9063 213.11 34.4266 213.249 34.9095L214.193 38.1865C214.394 38.8817 214.086 39.6229 213.453 39.9729L210.469 41.6225C210.029 41.8656 209.734 42.3067 209.678 42.806L209.296 46.1949C209.215 46.9138 208.648 47.4811 207.929 47.5621L204.54 47.944C204.041 48.0002 203.599 48.295 203.356 48.7348L201.707 51.7195C201.357 52.3527 200.616 52.6598 199.92 52.4595L196.643 51.5154C196.161 51.3763 195.64 51.4798 195.247 51.7931L192.581 53.9194C192.016 54.3704 191.213 54.3704 190.648 53.9194L187.981 51.7931C187.589 51.4798 187.068 51.3763 186.585 51.5154L183.308 52.4595C182.613 52.6598 181.872 52.3527 181.522 51.7195L179.872 48.7348C179.629 48.295 179.188 48.0002 178.689 47.944L175.3 47.5621C174.581 47.4811 174.014 46.9138 173.933 46.1949L173.551 42.806C173.495 42.3067 173.2 41.8656 172.76 41.6225L169.775 39.9729C169.142 39.6229 168.835 38.8817 169.036 38.1865L169.98 34.9095C170.119 34.4266 170.015 33.9063 169.702 33.5134L167.576 30.8471C167.125 30.2815 167.125 29.4792 167.576 28.9136L169.702 26.2473C170.015 25.8544 170.119 25.3341 169.98 24.8512L169.036 21.5742C168.835 20.879 169.142 20.1377 169.775 19.7878L172.76 18.1382C173.2 17.8951 173.495 17.454 173.551 16.9547L173.933 13.5658C174.014 12.8469 174.581 12.2795 175.3 12.1985L178.689 11.8167C179.188 11.7604 179.629 11.4657 179.872 11.0259L181.522 8.04115C181.872 7.40797 182.613 7.10092 183.308 7.30119L186.585 8.24526C187.068 8.38437 187.589 8.28087 187.981 7.96757L190.648 5.84131Z" fill="url(#paint6_linear_3739_1838)"/>
<g filter="url(#filter3_d_3739_1838)">
<path d="M191.609 49.2706C202.314 49.2706 210.992 40.5926 210.992 29.8877C210.992 19.1829 202.314 10.5049 191.609 10.5049C180.904 10.5049 172.227 19.1829 172.227 29.8877C172.227 40.5926 180.904 49.2706 191.609 49.2706Z" fill="url(#paint7_linear_3739_1838)"/>
<path opacity="0.18" d="M191.604 46.9527C201.024 46.9527 208.66 39.316 208.66 29.8958C208.66 20.4755 201.024 12.8389 191.604 12.8389C182.183 12.8389 174.547 20.4755 174.547 29.8958C174.547 39.316 182.183 46.9527 191.604 46.9527Z" fill="url(#paint8_radial_3739_1838)" fill-opacity="0.5"/>
</g>
<path d="M207.899 29.8317C207.899 30.499 207.861 31.1663 207.784 31.8145C207.708 32.539 207.555 33.2634 207.383 33.9498C207.307 34.2548 207.231 34.5408 207.135 34.8458C206.963 35.3796 206.773 35.9135 206.544 36.4282C206.047 37.553 205.436 38.6016 204.711 39.5739C204.1 40.3937 203.413 41.1563 202.65 41.8617C199.768 44.5308 195.912 46.1513 191.675 46.1704C187.437 46.1895 183.563 44.588 180.661 41.938C179.917 41.2516 179.23 40.5081 178.619 39.7074C177.474 38.2013 176.596 36.4854 176.042 34.6552C175.775 33.7973 175.584 32.9012 175.47 31.9861C175.393 31.3188 175.336 30.6515 175.336 29.9843C175.298 20.9475 182.551 13.6456 191.56 13.6075C200.55 13.5884 207.861 20.8331 207.899 29.8317Z" fill="#FCFCFC"/>
<path d="M183.898 27.4678L182.851 25.5235H182.694V27.4678H181.229V22.1958H183.539C183.963 22.1958 184.322 22.2706 184.616 22.4202C184.91 22.5647 185.132 22.7666 185.282 23.0259C185.431 23.2801 185.506 23.5668 185.506 23.8858C185.506 24.2448 185.406 24.5613 185.207 24.8355C185.013 25.1047 184.726 25.2967 184.347 25.4113L185.536 27.4678H183.898ZM182.694 24.5215H183.42C183.619 24.5215 183.769 24.4741 183.868 24.3794C183.968 24.2847 184.018 24.1476 184.018 23.9681C184.018 23.7986 183.966 23.6665 183.861 23.5718C183.761 23.4721 183.614 23.4222 183.42 23.4222H182.694V24.5215ZM189.508 26.6078H187.638L187.354 27.4678H185.814L187.736 22.1958H189.426L191.34 27.4678H189.792L189.508 26.6078ZM189.141 25.4861L188.573 23.7811L188.012 25.4861H189.141ZM196.701 27.4678H195.235L193.283 24.5215V27.4678H191.818V22.1958H193.283L195.235 25.1795V22.1958H196.701V27.4678ZM200.654 27.4678L199.001 25.1571V27.4678H197.536V22.1958H199.001V24.4691L200.639 22.1958H202.329L200.392 24.7533L202.426 27.4678H200.654ZM188.957 32.9859V30.1328H193.733V41.4678H190.554V32.9859H188.957Z" fill="url(#paint9_linear_3739_1838)"/>
</g>
<path d="M153.943 64.7483C154.392 64.8496 154.747 65.0739 155.007 65.4212C155.275 65.7613 155.409 66.152 155.409 66.5934C155.409 67.2446 155.184 67.7547 154.736 68.1237C154.287 68.4927 153.658 68.6772 152.847 68.6772H149.059V61.0256H152.728C153.509 61.0256 154.121 61.1993 154.562 61.5466C155.011 61.8939 155.235 62.3823 155.235 63.0118C155.235 63.4604 155.116 63.8366 154.877 64.1405C154.645 64.4372 154.334 64.6398 153.943 64.7483ZM151.187 64.0646H152.261C152.797 64.0646 153.064 63.8439 153.064 63.4025C153.064 62.9467 152.797 62.7187 152.261 62.7187H151.187V64.0646ZM152.424 66.9624C152.959 66.9624 153.227 66.7381 153.227 66.2895C153.227 66.058 153.155 65.8807 153.01 65.7577C152.872 65.6347 152.674 65.5732 152.413 65.5732H151.187V66.9624H152.424ZM158.468 62.7296V63.9777H160.91V65.5949H158.468V66.9733H161.236V68.6772H156.341V61.0256H161.236V62.7296H158.468ZM165.174 68.7532C164.284 68.7532 163.553 68.5434 162.982 68.1237C162.41 67.6968 162.102 67.089 162.059 66.3004H164.327C164.349 66.5681 164.429 66.7634 164.566 66.8864C164.704 67.0094 164.881 67.0709 165.098 67.0709C165.293 67.0709 165.452 67.0239 165.575 66.9299C165.706 66.8286 165.771 66.6911 165.771 66.5174C165.771 66.2931 165.666 66.1195 165.456 65.9965C165.246 65.8735 164.906 65.736 164.436 65.584C163.937 65.4176 163.531 65.2584 163.22 65.1065C162.916 64.9473 162.649 64.7194 162.417 64.4227C162.193 64.1188 162.081 63.7245 162.081 63.2397C162.081 62.7477 162.204 62.328 162.45 61.9807C162.696 61.6262 163.036 61.3584 163.47 61.1776C163.904 60.9967 164.396 60.9062 164.946 60.9062C165.836 60.9062 166.545 61.1161 167.073 61.5357C167.609 61.9482 167.894 62.5306 167.931 63.2831H165.619C165.612 63.0516 165.539 62.8779 165.402 62.7622C165.272 62.6464 165.102 62.5885 164.892 62.5885C164.733 62.5885 164.602 62.6355 164.501 62.7296C164.4 62.8237 164.349 62.9575 164.349 63.1312C164.349 63.2759 164.403 63.4025 164.512 63.511C164.628 63.6123 164.769 63.7028 164.935 63.7824C165.102 63.8547 165.348 63.9488 165.673 64.0646C166.158 64.231 166.556 64.3974 166.867 64.5638C167.185 64.723 167.457 64.9509 167.681 65.2476C167.913 65.537 168.028 65.906 168.028 66.3546C168.028 66.8105 167.913 67.2193 167.681 67.5811C167.457 67.9428 167.127 68.2286 166.693 68.4385C166.266 68.6483 165.76 68.7532 165.174 68.7532ZM174.78 61.0256V62.7187H172.74V68.6772H170.613V62.7187H168.594V61.0256H174.78ZM179.772 62.7296V63.9777H182.214V65.5949H179.772V66.9733H182.54V68.6772H177.645V61.0256H182.54V62.7296H179.772ZM192.523 61.0256V68.6772H190.396V64.4553L188.952 68.6772H187.173L185.718 64.4227V68.6772H183.591V61.0256H186.163L188.084 65.9965L189.962 61.0256H192.523ZM195.861 62.7296V63.9777H198.303V65.5949H195.861V66.9733H198.629V68.6772H193.734V61.0256H198.629V62.7296H195.861ZM203.555 68.6772L202.035 65.8554H201.807V68.6772H199.68V61.0256H203.034C203.649 61.0256 204.17 61.1341 204.597 61.3512C205.024 61.561 205.346 61.8541 205.563 62.2303C205.78 62.5994 205.888 63.0154 205.888 63.4785C205.888 63.9994 205.744 64.4589 205.454 64.8569C205.172 65.2476 204.756 65.5261 204.206 65.6926L205.932 68.6772H203.555ZM201.807 64.401H202.86C203.15 64.401 203.367 64.3323 203.511 64.1948C203.656 64.0573 203.728 63.8583 203.728 63.5979C203.728 63.3519 203.653 63.1601 203.501 63.0226C203.356 62.8779 203.142 62.8056 202.86 62.8056H201.807V64.401ZM211.74 63.5436C211.617 63.341 211.447 63.1854 211.23 63.0769C211.02 62.9684 210.77 62.9141 210.481 62.9141C209.945 62.9141 209.522 63.0878 209.211 63.4351C208.907 63.7824 208.755 64.2491 208.755 64.8351C208.755 65.4936 208.918 65.9965 209.243 66.3438C209.576 66.6838 210.057 66.8539 210.687 66.8539C211.432 66.8539 211.964 66.5174 212.282 65.8445H210.144V64.3142H214.117V66.3763C213.95 66.7815 213.704 67.1614 213.379 67.5159C213.06 67.8705 212.655 68.1635 212.163 68.3951C211.671 68.6194 211.11 68.7315 210.481 68.7315C209.714 68.7315 209.034 68.5687 208.44 68.2431C207.854 67.9103 207.398 67.4508 207.073 66.8647C206.754 66.2714 206.595 65.5949 206.595 64.8351C206.595 64.0826 206.754 63.4134 207.073 62.8273C207.398 62.234 207.854 61.7745 208.44 61.4489C209.026 61.1161 209.703 60.9496 210.47 60.9496C211.432 60.9496 212.228 61.1812 212.858 61.6443C213.487 62.1073 213.878 62.7404 214.03 63.5436H211.74ZM217.197 61.0256V68.6772H215.07V61.0256H217.197ZM225.496 68.6772H223.369L220.536 64.401V68.6772H218.409V61.0256H220.536L223.369 65.3561V61.0256H225.496V68.6772ZM231.592 63.5436C231.469 63.341 231.299 63.1854 231.082 63.0769C230.872 62.9684 230.622 62.9141 230.333 62.9141C229.797 62.9141 229.374 63.0878 229.063 63.4351C228.759 63.7824 228.607 64.2491 228.607 64.8351C228.607 65.4936 228.77 65.9965 229.095 66.3438C229.428 66.6838 229.909 66.8539 230.539 66.8539C231.284 66.8539 231.816 66.5174 232.134 65.8445H229.996V64.3142H233.969V66.3763C233.802 66.7815 233.556 67.1614 233.231 67.5159C232.912 67.8705 232.507 68.1635 232.015 68.3951C231.523 68.6194 230.962 68.7315 230.333 68.7315C229.566 68.7315 228.886 68.5687 228.292 68.2431C227.706 67.9103 227.25 67.4508 226.925 66.8647C226.606 66.2714 226.447 65.5949 226.447 64.8351C226.447 64.0826 226.606 63.4134 226.925 62.8273C227.25 62.234 227.706 61.7745 228.292 61.4489C228.878 61.1161 229.555 60.9496 230.322 60.9496C231.284 60.9496 232.08 61.1812 232.71 61.6443C233.339 62.1073 233.73 62.7404 233.882 63.5436H231.592ZM172.159 81.7532C171.269 81.7532 170.538 81.5434 169.966 81.1237C169.395 80.6968 169.087 80.089 169.044 79.3004H171.312C171.334 79.5681 171.413 79.7634 171.551 79.8864C171.688 80.0094 171.866 80.0709 172.083 80.0709C172.278 80.0709 172.437 80.0239 172.56 79.9299C172.69 79.8286 172.756 79.6911 172.756 79.5174C172.756 79.2931 172.651 79.1195 172.441 78.9965C172.231 78.8735 171.891 78.736 171.421 78.584C170.921 78.4176 170.516 78.2584 170.205 78.1065C169.901 77.9473 169.633 77.7194 169.402 77.4227C169.178 77.1188 169.065 76.7245 169.065 76.2397C169.065 75.7477 169.188 75.328 169.434 74.9807C169.68 74.6262 170.021 74.3584 170.455 74.1776C170.889 73.9967 171.381 73.9062 171.931 73.9062C172.821 73.9062 173.53 74.1161 174.058 74.5357C174.593 74.9482 174.879 75.5306 174.915 76.2831H172.604C172.596 76.0516 172.524 75.8779 172.387 75.7622C172.256 75.6464 172.086 75.5885 171.876 75.5885C171.717 75.5885 171.587 75.6355 171.486 75.7296C171.384 75.8237 171.334 75.9575 171.334 76.1312C171.334 76.2759 171.388 76.4025 171.497 76.511C171.612 76.6123 171.753 76.7028 171.92 76.7824C172.086 76.8547 172.332 76.9488 172.658 77.0646C173.143 77.231 173.541 77.3974 173.852 77.5638C174.17 77.723 174.441 77.9509 174.666 78.2476C174.897 78.537 175.013 78.906 175.013 79.3546C175.013 79.8105 174.897 80.2193 174.666 80.5811C174.441 80.9428 174.112 81.2286 173.678 81.4385C173.251 81.6483 172.745 81.7532 172.159 81.7532ZM175.742 77.8351C175.742 77.0826 175.897 76.4134 176.208 75.8273C176.527 75.234 176.975 74.7745 177.554 74.4489C178.133 74.1161 178.799 73.9496 179.551 73.9496C180.506 73.9496 181.309 74.2065 181.961 74.7202C182.612 75.2267 183.031 75.9177 183.22 76.7932H180.929C180.792 76.5038 180.6 76.2831 180.354 76.1312C180.115 75.9792 179.837 75.9032 179.519 75.9032C179.026 75.9032 178.632 76.0805 178.335 76.4351C178.046 76.7824 177.901 77.2491 177.901 77.8351C177.901 78.4285 178.046 78.9024 178.335 79.2569C178.632 79.6043 179.026 79.7779 179.519 79.7779C179.837 79.7779 180.115 79.7019 180.354 79.55C180.6 79.398 180.792 79.1774 180.929 78.8879H183.22C183.031 79.7634 182.612 80.458 181.961 80.9718C181.309 81.4783 180.506 81.7315 179.551 81.7315C178.799 81.7315 178.133 81.5687 177.554 81.2431C176.975 80.9103 176.527 80.4508 176.208 79.8647C175.897 79.2714 175.742 78.5949 175.742 77.8351ZM191.075 74.0256V81.6772H188.948V78.6057H186.354V81.6772H184.227V74.0256H186.354V76.9018H188.948V74.0256H191.075ZM195.961 81.7532C195.245 81.7532 194.586 81.5868 193.986 81.254C193.385 80.9139 192.908 80.4472 192.553 79.8539C192.206 79.2533 192.032 78.5768 192.032 77.8243C192.032 77.0718 192.206 76.3989 192.553 75.8056C192.908 75.205 193.385 74.7383 193.986 74.4055C194.586 74.0726 195.245 73.9062 195.961 73.9062C196.685 73.9062 197.343 74.0726 197.936 74.4055C198.537 74.7383 199.011 75.205 199.358 75.8056C199.706 76.3989 199.879 77.0718 199.879 77.8243C199.879 78.5768 199.706 79.2533 199.358 79.8539C199.011 80.4472 198.537 80.9139 197.936 81.254C197.336 81.5868 196.677 81.7532 195.961 81.7532ZM195.961 79.7779C196.504 79.7779 196.931 79.6006 197.242 79.2461C197.56 78.8915 197.719 78.4176 197.719 77.8243C197.719 77.2165 197.56 76.739 197.242 76.3916C196.931 76.0371 196.504 75.8598 195.961 75.8598C195.411 75.8598 194.981 76.0371 194.67 76.3916C194.358 76.739 194.203 77.2165 194.203 77.8243C194.203 78.4248 194.358 78.9024 194.67 79.2569C194.981 79.6043 195.411 79.7779 195.961 79.7779ZM204.504 81.7532C203.788 81.7532 203.129 81.5868 202.529 81.254C201.928 80.9139 201.45 80.4472 201.096 79.8539C200.749 79.2533 200.575 78.5768 200.575 77.8243C200.575 77.0718 200.749 76.3989 201.096 75.8056C201.45 75.205 201.928 74.7383 202.529 74.4055C203.129 74.0726 203.788 73.9062 204.504 73.9062C205.227 73.9062 205.886 74.0726 206.479 74.4055C207.08 74.7383 207.554 75.205 207.901 75.8056C208.248 76.3989 208.422 77.0718 208.422 77.8243C208.422 78.5768 208.248 79.2533 207.901 79.8539C207.554 80.4472 207.08 80.9139 206.479 81.254C205.879 81.5868 205.22 81.7532 204.504 81.7532ZM204.504 79.7779C205.047 79.7779 205.473 79.6006 205.785 79.2461C206.103 78.8915 206.262 78.4176 206.262 77.8243C206.262 77.2165 206.103 76.739 205.785 76.3916C205.473 76.0371 205.047 75.8598 204.504 75.8598C203.954 75.8598 203.523 76.0371 203.212 76.3916C202.901 76.739 202.746 77.2165 202.746 77.8243C202.746 78.4248 202.901 78.9024 203.212 79.2569C203.523 79.6043 203.954 79.7779 204.504 79.7779ZM211.506 80.0492H213.882V81.6772H209.378V74.0256H211.506V80.0492Z" fill="url(#paint10_linear_3739_1838)"/>
<g filter="url(#filter4_d_3739_1838)">
<path d="M296.366 5.8418C296.932 5.39074 297.734 5.39074 298.3 5.8418L300.966 7.96805C301.359 8.28136 301.879 8.38486 302.362 8.24575L305.639 7.30168C306.334 7.10141 307.076 7.40846 307.426 8.04164L309.075 11.0264C309.318 11.4662 309.759 11.7609 310.259 11.8172L313.647 12.199C314.366 12.28 314.934 12.8474 315.015 13.5663L315.397 16.9551C315.453 17.4545 315.748 17.8956 316.187 18.1387L319.172 19.7883C319.805 20.1382 320.112 20.8795 319.912 21.5747L318.968 24.8517C318.829 25.3346 318.932 25.8549 319.246 26.2478L321.372 28.9141C321.823 29.4797 321.823 30.282 321.372 30.8476L319.246 33.5139C318.932 33.9068 318.829 34.4271 318.968 34.91L319.912 38.187C320.112 38.8822 319.805 39.6234 319.172 39.9734L316.187 41.623C315.748 41.8661 315.453 42.3072 315.397 42.8065L315.015 46.1954C314.934 46.9143 314.366 47.4816 313.647 47.5626L310.259 47.9445C309.759 48.0007 309.318 48.2955 309.075 48.7353L307.426 51.72C307.076 52.3532 306.334 52.6603 305.639 52.46L302.362 51.5159C301.879 51.3768 301.359 51.4803 300.966 51.7936L298.3 53.9199C297.734 54.3709 296.932 54.3709 296.366 53.9199L293.7 51.7936C293.307 51.4803 292.787 51.3768 292.304 51.5159L289.027 52.46C288.332 52.6603 287.591 52.3532 287.241 51.72L285.591 48.7353C285.348 48.2955 284.907 48.0007 284.408 47.9445L281.019 47.5626C280.3 47.4816 279.733 46.9143 279.652 46.1954L279.27 42.8065C279.213 42.3072 278.919 41.8661 278.479 41.623L275.494 39.9734C274.861 39.6234 274.554 38.8822 274.754 38.187L275.698 34.91C275.837 34.4271 275.734 33.9068 275.421 33.5139L273.294 30.8476C272.843 30.282 272.843 29.4797 273.294 28.9141L275.421 26.2478C275.734 25.8549 275.837 25.3346 275.698 24.8517L274.754 21.5747C274.554 20.8795 274.861 20.1382 275.494 19.7883L278.479 18.1387C278.919 17.8956 279.213 17.4545 279.27 16.9551L279.652 13.5663C279.733 12.8474 280.3 12.28 281.019 12.199L284.408 11.8172C284.907 11.7609 285.348 11.4662 285.591 11.0264L287.241 8.04164C287.591 7.40846 288.332 7.10141 289.027 7.30168L292.304 8.24575C292.787 8.38486 293.307 8.28136 293.7 7.96805L296.366 5.8418Z" fill="url(#paint11_linear_3739_1838)"/>
<g filter="url(#filter5_d_3739_1838)">
<path d="M297.328 49.2706C308.033 49.2706 316.711 40.5926 316.711 29.8877C316.711 19.1829 308.033 10.5049 297.328 10.5049C286.623 10.5049 277.945 19.1829 277.945 29.8877C277.945 40.5926 286.623 49.2706 297.328 49.2706Z" fill="url(#paint12_linear_3739_1838)"/>
<path opacity="0.18" d="M297.33 46.9527C306.75 46.9527 314.387 39.316 314.387 29.8958C314.387 20.4755 306.75 12.8389 297.33 12.8389C287.91 12.8389 280.273 20.4755 280.273 29.8958C280.273 39.316 287.91 46.9527 297.33 46.9527Z" fill="url(#paint13_radial_3739_1838)" fill-opacity="0.5"/>
</g>
<path d="M313.617 29.8322C313.617 30.4995 313.579 31.1668 313.503 31.815C313.427 32.5395 313.274 33.2639 313.102 33.9503C313.026 34.2553 312.949 34.5413 312.854 34.8463C312.682 35.3801 312.491 35.9139 312.262 36.4287C311.766 37.5535 311.155 38.6021 310.43 39.5744C309.819 40.3942 309.132 41.1568 308.369 41.8622C305.486 44.5313 301.631 46.1518 297.393 46.1709C293.156 46.19 289.281 44.5885 286.38 41.9385C285.636 41.2521 284.949 40.5086 284.338 39.7079C283.193 38.2017 282.315 36.4859 281.761 34.6557C281.494 33.7977 281.303 32.9017 281.188 31.9866C281.112 31.3193 281.055 30.652 281.055 29.9847C281.017 20.948 288.27 13.6461 297.279 13.6079C306.269 13.5889 313.579 20.8336 313.617 29.8322Z" fill="#FCFCFC"/>
<path d="M289.609 27.4678L288.562 25.5235H288.405V27.4678H286.94V22.1958H289.25C289.674 22.1958 290.033 22.2706 290.327 22.4202C290.621 22.5647 290.843 22.7666 290.993 23.0259C291.142 23.2801 291.217 23.5668 291.217 23.8858C291.217 24.2448 291.117 24.5613 290.918 24.8355C290.724 25.1047 290.437 25.2967 290.058 25.4113L291.247 27.4678H289.609ZM288.405 24.5215H289.131C289.33 24.5215 289.48 24.4741 289.579 24.3794C289.679 24.2847 289.729 24.1476 289.729 23.9681C289.729 23.7986 289.677 23.6665 289.572 23.5718C289.472 23.4721 289.325 23.4222 289.131 23.4222H288.405V24.5215ZM295.219 26.6078H293.349L293.065 27.4678H291.525L293.447 22.1958H295.137L297.051 27.4678H295.503L295.219 26.6078ZM294.852 25.4861L294.284 23.7811L293.723 25.4861H294.852ZM302.412 27.4678H300.946L298.994 24.5215V27.4678H297.529V22.1958H298.994L300.946 25.1795V22.1958H302.412V27.4678ZM306.365 27.4678L304.712 25.1571V27.4678H303.247V22.1958H304.712V24.4691L306.35 22.1958H308.04L306.103 24.7533L308.137 27.4678H306.365ZM294.668 32.9859V30.1328H299.444V41.4678H296.265V32.9859H294.668Z" fill="url(#paint14_linear_3739_1838)"/>
</g>
<path d="M279.7 61.0261V68.6777H277.572V65.6062H274.978V68.6777H272.851V61.0261H274.978V63.9022H277.572V61.0261H279.7ZM284.585 68.7537C283.869 68.7537 283.211 68.5873 282.61 68.2545C282.01 67.9144 281.532 67.4477 281.177 66.8544C280.83 66.2538 280.656 65.5773 280.656 64.8248C280.656 64.0723 280.83 63.3994 281.177 62.8061C281.532 62.2055 282.01 61.7388 282.61 61.406C283.211 61.0731 283.869 60.9067 284.585 60.9067C285.309 60.9067 285.967 61.0731 286.561 61.406C287.161 61.7388 287.635 62.2055 287.983 62.8061C288.33 63.3994 288.503 64.0723 288.503 64.8248C288.503 65.5773 288.33 66.2538 287.983 66.8544C287.635 67.4477 287.161 67.9144 286.561 68.2545C285.96 68.5873 285.302 68.7537 284.585 68.7537ZM284.585 66.7784C285.128 66.7784 285.555 66.6011 285.866 66.2466C286.184 65.892 286.344 65.4181 286.344 64.8248C286.344 64.217 286.184 63.7394 285.866 63.3921C285.555 63.0376 285.128 62.8603 284.585 62.8603C284.036 62.8603 283.605 63.0376 283.294 63.3921C282.983 63.7394 282.827 64.217 282.827 64.8248C282.827 65.4253 282.983 65.9029 283.294 66.2574C283.605 66.6047 284.036 66.7784 284.585 66.7784ZM291.587 67.0497H293.964V68.6777H289.46V61.0261H291.587V67.0497ZM296.918 61.0261V68.6777H294.791V61.0261H296.918ZM301.017 68.7537C300.127 68.7537 299.396 68.5439 298.824 68.1242C298.253 67.6973 297.945 67.0895 297.902 66.3008H300.17C300.192 66.5686 300.271 66.7639 300.409 66.8869C300.546 67.0099 300.724 67.0714 300.941 67.0714C301.136 67.0714 301.295 67.0244 301.418 66.9303C301.549 66.829 301.614 66.6916 301.614 66.5179C301.614 66.2936 301.509 66.12 301.299 65.9969C301.089 65.8739 300.749 65.7365 300.279 65.5845C299.779 65.4181 299.374 65.2589 299.063 65.107C298.759 64.9478 298.492 64.7199 298.26 64.4232C298.036 64.1193 297.924 63.725 297.924 63.2402C297.924 62.7482 298.047 62.3285 298.293 61.9812C298.539 61.6267 298.879 61.3589 299.313 61.178C299.747 60.9972 300.239 60.9067 300.789 60.9067C301.679 60.9067 302.388 61.1165 302.916 61.5362C303.452 61.9486 303.737 62.5311 303.774 63.2836H301.462C301.455 63.0521 301.382 62.8784 301.245 62.7626C301.114 62.6469 300.944 62.589 300.735 62.589C300.575 62.589 300.445 62.636 300.344 62.7301C300.243 62.8241 300.192 62.958 300.192 63.1317C300.192 63.2764 300.246 63.403 300.355 63.5115C300.47 63.6128 300.612 63.7033 300.778 63.7829C300.944 63.8552 301.19 63.9493 301.516 64.065C302.001 64.2315 302.399 64.3979 302.71 64.5643C303.028 64.7235 303.3 64.9514 303.524 65.2481C303.755 65.5375 303.871 65.9065 303.871 66.3551C303.871 66.811 303.755 67.2198 303.524 67.5815C303.3 67.9433 302.97 68.2291 302.536 68.439C302.109 68.6488 301.603 68.7537 301.017 68.7537ZM310.623 61.0261V62.7192H308.583V68.6777H306.456V62.7192H304.437V61.0261H310.623ZM313.538 61.0261V68.6777H311.41V61.0261H313.538ZM314.489 64.8356C314.489 64.0831 314.644 63.4138 314.955 62.8278C315.274 62.2344 315.722 61.775 316.301 61.4494C316.88 61.1165 317.546 60.9501 318.298 60.9501C319.253 60.9501 320.056 61.207 320.708 61.7207C321.359 62.2272 321.778 62.9182 321.966 63.7937H319.676C319.539 63.5043 319.347 63.2836 319.101 63.1317C318.862 62.9797 318.584 62.9037 318.265 62.9037C317.773 62.9037 317.379 63.081 317.082 63.4356C316.793 63.7829 316.648 64.2496 316.648 64.8356C316.648 65.429 316.793 65.9029 317.082 66.2574C317.379 66.6047 317.773 66.7784 318.265 66.7784C318.584 66.7784 318.862 66.7024 319.101 66.5505C319.347 66.3985 319.539 66.1778 319.676 65.8884H321.966C321.778 66.7639 321.359 67.4585 320.708 67.9723C320.056 68.4788 319.253 68.732 318.298 68.732C317.546 68.732 316.88 68.5692 316.301 68.2436C315.722 67.9108 315.274 67.4513 314.955 66.8652C314.644 66.2719 314.489 65.5954 314.489 64.8356ZM267.639 75.7301V76.9782H270.081V78.5954H267.639V79.9738H270.406V81.6777H265.511V74.0261H270.406V75.7301H267.639ZM274.485 74.0261C275.289 74.0261 275.99 74.1889 276.591 74.5145C277.199 74.8329 277.665 75.2815 277.991 75.8603C278.317 76.4392 278.48 77.1012 278.48 77.8465C278.48 78.5845 278.313 79.243 277.98 79.8218C277.655 80.4007 277.188 80.8565 276.58 81.1893C275.98 81.5149 275.281 81.6777 274.485 81.6777H271.457V74.0261H274.485ZM274.323 79.8001C274.945 79.8001 275.433 79.6301 275.788 79.29C276.142 78.9499 276.32 78.4688 276.32 77.8465C276.32 77.217 276.142 76.7322 275.788 76.3921C275.433 76.0448 274.945 75.8712 274.323 75.8712H273.585V79.8001H274.323ZM281.522 74.0261V78.4651C281.522 78.8776 281.616 79.1959 281.804 79.4202C282 79.6445 282.293 79.7567 282.684 79.7567C283.074 79.7567 283.367 79.6445 283.563 79.4202C283.765 79.1887 283.867 78.8703 283.867 78.4651V74.0261H285.994V78.4651C285.994 79.167 285.846 79.7675 285.549 80.2668C285.252 80.7588 284.847 81.1314 284.333 81.3847C283.827 81.6307 283.262 81.7537 282.64 81.7537C282.018 81.7537 281.461 81.6307 280.969 81.3847C280.484 81.1314 280.1 80.7588 279.818 80.2668C279.543 79.7748 279.406 79.1742 279.406 78.4651V74.0261H281.522ZM286.905 77.8356C286.905 77.0831 287.06 76.4138 287.371 75.8278C287.69 75.2344 288.138 74.775 288.717 74.4494C289.296 74.1165 289.962 73.9501 290.714 73.9501C291.669 73.9501 292.472 74.207 293.124 74.7207C293.775 75.2272 294.194 75.9182 294.383 76.7937H292.093C291.955 76.5043 291.763 76.2836 291.517 76.1317C291.279 75.9797 291 75.9037 290.682 75.9037C290.19 75.9037 289.795 76.081 289.499 76.4356C289.209 76.7829 289.064 77.2496 289.064 77.8356C289.064 78.429 289.209 78.9029 289.499 79.2574C289.795 79.6047 290.19 79.7784 290.682 79.7784C291 79.7784 291.279 79.7024 291.517 79.5505C291.763 79.3985 291.955 79.1778 292.093 78.8884H294.383C294.194 79.7639 293.775 80.4585 293.124 80.9723C292.472 81.4788 291.669 81.732 290.714 81.732C289.962 81.732 289.296 81.5692 288.717 81.2436C288.138 80.9108 287.69 80.4513 287.371 79.8652C287.06 79.2719 286.905 78.5954 286.905 77.8356ZM300.231 80.4296H297.517L297.105 81.6777H294.869L297.658 74.0261H300.111L302.89 81.6777H300.643L300.231 80.4296ZM299.699 78.8016L298.874 76.327L298.06 78.8016H299.699ZM309.346 74.0261V75.7192H307.306V81.6777H305.178V75.7192H303.16V74.0261H309.346ZM312.26 74.0261V81.6777H310.133V74.0261H312.26ZM317.14 81.7537C316.424 81.7537 315.765 81.5873 315.165 81.2545C314.564 80.9144 314.087 80.4477 313.732 79.8544C313.385 79.2538 313.211 78.5773 313.211 77.8248C313.211 77.0723 313.385 76.3994 313.732 75.8061C314.087 75.2055 314.564 74.7388 315.165 74.406C315.765 74.0731 316.424 73.9067 317.14 73.9067C317.864 73.9067 318.522 74.0731 319.116 74.406C319.716 74.7388 320.19 75.2055 320.537 75.8061C320.885 76.3994 321.058 77.0723 321.058 77.8248C321.058 78.5773 320.885 79.2538 320.537 79.8544C320.19 80.4477 319.716 80.9144 319.116 81.2545C318.515 81.5873 317.857 81.7537 317.14 81.7537ZM317.14 79.7784C317.683 79.7784 318.11 79.6011 318.421 79.2466C318.739 78.892 318.899 78.4181 318.899 77.8248C318.899 77.217 318.739 76.7394 318.421 76.3921C318.11 76.0376 317.683 75.8603 317.14 75.8603C316.59 75.8603 316.16 76.0376 315.849 76.3921C315.538 76.7394 315.382 77.217 315.382 77.8248C315.382 78.4253 315.538 78.9029 315.849 79.2574C316.16 79.6047 316.59 79.7784 317.14 79.7784ZM329.102 81.6777H326.975L324.142 77.4015V81.6777H322.015V74.0261H324.142L326.975 78.3566V74.0261H329.102V81.6777Z" fill="url(#paint15_linear_3739_1838)"/>
<path d="M351.696 2.35553C350.978 2.08546 350.293 1.8225 350.173 1.75854C349.907 1.63062 349.918 1.63062 349.825 1.7088C349.564 1.922 350.451 3.52818 351.805 5.30492C353.12 7.03191 354.061 7.72128 355.339 7.89896C355.649 7.94871 355.926 7.96292 355.958 7.9416C355.986 7.92028 356.383 8.26852 356.839 8.72337C357.236 9.11427 357.69 9.5629 357.937 9.80764L358.041 9.91023C358.242 10.1092 358.4 10.2798 358.394 10.2869C358.389 10.294 358.237 10.2585 358.057 10.2016C357.601 10.0524 356.002 9.98841 355.328 10.095C355.034 10.1448 354.529 10.2585 354.202 10.358C353.033 10.6991 351.196 11.6088 351.245 11.822C351.283 11.9641 351.603 12.085 351.946 12.085C352.321 12.0921 353.311 12.2271 355.121 12.5185C357.443 12.8951 358.998 12.8809 360.069 12.4758C360.333 12.3765 360.633 12.4444 360.83 12.6464C361.222 13.0373 362.244 14.1602 362.624 14.615L362.749 14.7614C362.78 14.798 362.738 14.8508 362.695 14.8282C362.314 14.6292 361.537 14.3592 361.02 14.2526C359.9 14.0181 357.329 14.0038 356.845 14.2242C356.66 14.3166 356.616 14.5013 356.747 14.6435C356.785 14.6861 357.334 15.0272 357.954 15.3897C358.579 15.7593 359.503 16.3136 360.015 16.6263C361.793 17.7279 363.38 18.2751 364.794 18.2751C365.305 18.2751 365.316 18.2822 365.457 18.4883C366.033 19.327 367.741 22.4753 367.507 22.255C367.447 22.1982 367.202 21.9707 366.969 21.7504C365.767 20.6275 364.326 19.8102 362.57 19.263C361.749 19.0071 361.222 18.9574 361.194 19.1351C361.173 19.2772 361.341 19.4904 362.189 20.393C362.575 20.8123 363.212 21.5159 363.603 21.9707C364.462 22.9728 365.022 23.5414 365.914 24.3374C367.181 25.4603 368.496 26.3771 369.073 26.5334C369.27 26.5868 369.428 26.7344 369.494 26.9276L369.633 27.3294C370.041 28.5447 370.862 31.3946 370.862 31.622C370.862 31.6433 370.758 31.4728 370.633 31.2382C370.247 30.5204 369.655 29.6392 369.258 29.1914C368.627 28.4878 366.773 26.9812 365.517 26.1567C364.837 25.709 364.663 25.6308 364.663 25.7872C364.663 25.8511 364.941 26.3842 365.278 26.974C365.62 27.5639 366.262 28.7508 366.702 29.6107C368.388 32.8728 369.328 34.2871 370.666 35.5948C371.21 36.1278 371.558 36.3979 371.693 36.3979C371.775 36.3979 371.949 37.7482 372.09 39.4894C372.166 40.4488 372.292 43.2987 372.253 43.3414C372.243 43.3556 372.194 43.1211 372.139 42.8155C371.835 40.989 371.264 39.4112 370.437 38.1035C369.872 37.2081 367.463 34.1236 367.327 34.1236C367.306 34.1236 367.306 34.2587 367.338 34.4221C367.398 34.7775 367.931 37.1015 368.257 38.4305C368.377 38.9351 368.507 39.461 368.535 39.596C368.654 40.129 369.23 42.1545 369.394 42.6094C369.611 43.2063 370.307 44.5638 371.106 45.9567C371.846 47.236 371.965 47.3995 372.085 47.2715C372.156 47.1933 372.161 47.2076 372.139 47.3852C372.128 47.4989 372.09 47.9254 372.058 48.3376C371.944 49.7519 371.677 51.7276 371.394 53.2414C371.378 53.3289 371.25 53.3193 371.247 53.2303L371.237 52.9216C371.161 50.8179 370.834 49.496 369.78 47.0228C368.85 44.8481 368.072 43.4267 367.926 43.6185C367.79 43.7962 368.197 51.3083 368.442 53.1845C368.643 54.7338 369.519 57.0578 370.122 57.6477C370.236 57.7612 370.277 57.9286 370.228 58.0817L370.073 58.5716C369.714 59.7371 369.421 60.5686 368.959 61.7626C368.54 62.8358 367.936 64.2216 368.002 63.9445C368.023 63.8734 368.1 63.3475 368.181 62.7718C368.371 61.4002 368.377 60.192 368.208 58.8914C368.034 57.5908 367.735 55.8141 367.54 54.9044C367.371 54.1297 367.001 52.9287 366.893 52.7865C366.806 52.6728 366.729 52.8647 366.729 53.1774C366.729 53.6678 366.49 55.2598 366.023 57.8609C365.528 60.6397 365.343 62.3099 365.386 63.582C365.441 64.9892 365.675 66.4959 365.963 67.2705C366.062 67.5304 366.035 67.8218 365.89 68.0591L365.685 68.3934C365.191 69.2036 364.109 70.7956 363.685 71.3286C363.636 71.3907 363.538 71.3358 363.566 71.2621L363.57 71.2504C363.956 70.2341 364.065 69.0899 364.065 66.105C364.065 63.9516 364.011 61.9119 363.951 61.9119C363.929 61.9119 363.679 62.5017 363.391 63.2195C362.853 64.577 362.358 65.7212 361.809 66.8867C360.672 69.2889 359.987 72.4799 360.199 74.3277C360.243 74.676 360.276 75.01 360.281 75.0882C360.292 75.2943 358.802 76.6162 357.247 77.7888C357.189 77.8334 357.111 77.7659 357.147 77.7018L357.198 77.6111C357.965 76.2324 358.432 74.7897 358.905 72.3804C359.079 71.4841 359.298 69.9618 359.322 69.5182C359.327 69.4356 359.291 69.4222 359.239 69.4867C358.705 70.1496 355.654 74.2207 355.072 75.0597C353.822 76.8578 353.327 78.0731 353.202 79.6793L353.181 79.9596C353.171 80.1067 353.08 80.2362 352.946 80.2976C352.169 80.6671 349.864 81.4844 349.755 81.4418C349.728 81.4276 349.825 81.2997 349.972 81.1575C350.858 80.2691 352.299 77.9452 352.854 76.5167C353.039 76.0263 353.3 75.0953 353.3 74.9176C353.3 74.8821 352.914 75.1095 352.441 75.4151C351.973 75.7207 351.158 76.1826 350.636 76.4385C348.749 77.3695 348.113 77.7888 347.379 78.5706C346.748 79.2457 346.302 80.0773 345.9 81.3281C345.775 81.7332 345.644 82.1027 345.617 82.1454C345.589 82.1981 345.378 82.2235 344.822 82.233C344.43 82.2398 344.111 82.556 344.111 82.9485V83.0731C344.111 83.3968 344.373 83.6592 344.697 83.6592C344.898 83.6592 345.084 83.7616 345.192 83.9308L345.367 84.2064C345.981 85.1658 346.601 85.8126 347.4 86.3243C348.733 87.1771 350.429 87.8167 351.995 88.0655C353.387 88.2787 356.562 88.4422 356.562 88.2929C356.562 88.1863 355.719 87.5964 353.381 86.0826C350.19 84.0074 349.744 83.7516 348.684 83.3891L348.671 83.3848C348.563 83.3481 348.572 83.1927 348.684 83.1688C349.401 83.0195 350.82 82.6002 351.576 82.3231C352.014 82.1608 352.508 82.2848 352.816 82.6358C353.958 83.9577 355.197 84.4907 357.285 84.5618C358.53 84.6044 359.232 84.5333 360.286 84.2562C361.015 84.0643 365.218 82.4368 365.245 82.3373C365.256 82.3017 364.864 82.1809 364.375 82.0743C363.891 81.9606 362.994 81.7403 362.38 81.591C360.314 81.0793 359.525 80.8946 358.982 80.8093C358.166 80.6742 356.013 80.6885 355.317 80.8377C355.181 80.8658 355.053 80.8912 354.952 80.9096C354.805 80.9362 354.783 80.8842 354.912 80.8098C354.948 80.7893 354.987 80.7675 355.029 80.7453C356.1 80.1839 358.557 78.4569 359.585 77.5472C359.748 77.3979 359.813 77.3624 359.754 77.4548C359.661 77.5969 359.661 77.604 360.107 77.8528C360.357 77.9878 360.694 78.1513 360.857 78.2152C361.7 78.5422 363.07 78.6345 364.065 78.4356C364.924 78.265 366.583 77.5188 367.561 76.8578C368.556 76.1898 372.003 73.0129 372.003 72.7713C372.003 72.5083 367.05 73.1124 364.826 73.6526C364.239 73.7947 364.13 73.8445 363.087 74.5338C362.173 75.1308 362.015 75.2161 362.217 75.0029C363.266 73.8729 364.658 72.1032 365.604 70.6747C365.995 70.0849 366.05 70.028 366.169 70.092C366.24 70.1275 366.599 70.1773 366.969 70.1986C367.491 70.2341 367.757 70.2199 368.176 70.1204C368.855 69.9641 369.845 69.5732 370.345 69.2747C371.514 68.564 373.439 66.3395 374.651 64.2998C375.005 63.7099 375.543 62.8358 375.847 62.3525C376.614 61.1514 376.598 61.0661 375.684 61.4926C375.364 61.6418 374.657 61.9119 374.118 62.0895C372.803 62.5302 372.205 62.8073 371.106 63.5109C370.09 64.1648 369.404 64.7049 368.823 65.309C368.513 65.6359 368.464 65.6714 368.551 65.5009C369.067 64.4704 370.644 60.5615 370.644 60.2986C370.644 60.2346 370.72 60.2062 370.9 60.2062C371.177 60.2062 372.036 59.8437 372.699 59.4529C373.39 59.0407 374.151 58.33 374.803 57.47C375.456 56.6172 375.76 56.077 376.326 54.7694C376.788 53.6891 378.811 48.3447 378.789 48.2594C378.773 48.1883 377.576 49.1051 376.761 49.8158C373.58 52.6017 373.113 53.0779 372.504 54.1297C372.368 54.3643 372.237 54.5846 372.215 54.6201C372.194 54.6486 372.248 54.3216 372.335 53.8881C372.536 52.8576 372.781 51.3225 372.928 50.1143C372.97 49.775 373.007 49.4742 373.03 49.3034C373.043 49.2042 373.101 49.1391 373.186 49.0868C373.431 48.9371 373.922 48.574 374.233 48.3091C376.07 46.7314 377.022 44.4003 377.653 39.9158C377.805 38.8427 378.115 36.7745 378.185 36.341C378.207 36.2344 378.191 36.1847 378.131 36.1847C377.995 36.1847 376.179 38.1178 375.837 38.6224C375.179 39.596 374.2 41.5007 373.613 42.9434L373.552 43.0911C373.499 43.2193 373.308 43.1815 373.308 43.0429C373.308 42.1758 373.216 40.2712 373.118 39.0843C373.015 37.8548 373.015 37.9117 373.161 37.8619C373.232 37.8406 373.439 37.6985 373.624 37.5421C374.749 36.5898 375.315 35.1968 375.565 32.7733C375.657 31.8992 375.668 29.5681 375.592 28.1183C375.559 27.571 375.516 26.5405 375.489 25.8227C375.467 25.112 375.429 24.5079 375.407 24.4795C375.342 24.3942 375.168 24.6785 374.803 25.4745C374.602 25.908 374.205 26.7182 373.928 27.2725C373.238 28.63 372.656 30.4209 372.357 32.0982C372.292 32.489 372.221 32.7591 372.205 32.7023C372.188 32.6454 372.085 32.1977 371.976 31.7073C371.721 30.5915 371.411 29.4046 371.123 28.4807C371.003 28.0827 370.894 27.7132 370.878 27.6563C370.862 27.5995 370.916 27.6563 371.003 27.7842C371.071 27.8855 371.224 27.8712 371.272 27.7592L371.552 27.1091C372.003 26.0501 372.172 25.5313 372.324 24.7211C372.667 22.9018 372.476 21.2387 371.46 17.0669C370.818 14.4445 370.742 14.1389 370.698 14.2028C370.677 14.2313 370.524 14.8211 370.356 15.5034C369.557 18.7868 369.459 19.2985 369.394 20.6702C369.35 21.6083 369.394 22.7952 369.502 23.5272C369.508 23.5688 369.513 23.6093 369.517 23.6477C369.539 23.8447 369.472 23.8693 369.398 23.6854C369.389 23.6643 369.381 23.6423 369.372 23.6196C368.969 22.5891 367.893 20.4072 367.099 19.0356L366.91 18.7046C366.872 18.6385 366.961 18.5739 367.012 18.6305C367.262 18.9005 367.447 19.0569 367.518 19.0427C367.877 18.9716 368.17 16.7969 368.04 15.1836C367.839 12.8028 367.382 11.7012 364.962 7.77814C364.674 7.30197 364.462 7.0177 364.44 7.06744C364.424 7.1172 364.364 7.77814 364.31 8.53858C364.103 11.488 364.343 13.6556 365.093 15.5532C365.133 15.6551 364.995 15.7311 364.931 15.6426L364.636 15.2404C364.033 14.416 363.076 13.2434 362.418 12.5114C362.32 12.4051 362.282 12.2561 362.318 12.116L362.38 11.8789C362.548 11.2392 362.548 10.2727 362.385 9.50513C362.233 8.78733 361.847 7.81367 361.445 7.11008C361.091 6.49889 360.237 5.36888 359.743 4.87139C359.069 4.18202 357.225 2.63981 357.084 2.63981C357.04 2.63981 357.639 5.56788 357.813 6.22882C358.09 7.24512 358.541 8.33248 359.014 9.12846C359.096 9.2706 358.895 9.12846 358.324 8.63808L358.108 8.45613C357.688 8.10107 357.178 7.66992 356.883 7.42279L356.658 7.23975C356.392 7.02212 356.205 6.72185 356.127 6.38629L356.111 6.3141C355.801 5.02064 355.23 4.18913 354.197 3.50686C353.566 3.09465 353.158 2.90276 351.696 2.35553Z" fill="url(#paint16_linear_3739_1838)"/>
</g>
<defs>
<filter id="filter0_d_3739_1838" x="53.3094" y="3.52946" width="65.1234" height="65.1263" filterUnits="userSpaceOnUse" color-interpolation-filters="sRGB">
<feFlood flood-opacity="0" result="BackgroundImageFix"/>
<feColorMatrix in="SourceAlpha" type="matrix" values="0 0 0 0 0 0 0 0 0 0 0 0 0 0 0 0 0 0 127 0" result="hardAlpha"/>
<feOffset dy="6.20247"/>
<feGaussianBlur stdDeviation="3.87654"/>
<feColorMatrix type="matrix" values="0 0 0 0 0.00392157 0 0 0 0 0.0196078 0 0 0 0 0.2 0 0 0 0.08 0"/>
<feBlend mode="normal" in2="BackgroundImageFix" result="effect1_dropShadow_3739_1838"/>
<feBlend mode="normal" in="SourceGraphic" in2="effect1_dropShadow_3739_1838" result="shape"/>
</filter>
<filter id="filter1_d_3739_1838" x="61.8169" y="8.17798" width="48.0693" height="48.0693" filterUnits="userSpaceOnUse" color-interpolation-filters="sRGB">
<feFlood flood-opacity="0" result="BackgroundImageFix"/>
<feColorMatrix in="SourceAlpha" type="matrix" values="0 0 0 0 0 0 0 0 0 0 0 0 0 0 0 0 0 0 127 0" result="hardAlpha"/>
<feOffset dy="2.32592"/>
<feGaussianBlur stdDeviation="2.32592"/>
<feColorMatrix type="matrix" values="0 0 0 0 0.00392157 0 0 0 0 0.0196078 0 0 0 0 0.2 0 0 0 0.08 0"/>
<feBlend mode="normal" in2="BackgroundImageFix" result="effect1_dropShadow_3739_1838"/>
<feBlend mode="normal" in="SourceGraphic" in2="effect1_dropShadow_3739_1838" result="shape"/>
</filter>
<filter id="filter2_d_3739_1838" x="159.059" y="3.52849" width="65.1234" height="65.1263" filterUnits="userSpaceOnUse" color-interpolation-filters="sRGB">
<feFlood flood-opacity="0" result="BackgroundImageFix"/>
<feColorMatrix in="SourceAlpha" type="matrix" values="0 0 0 0 0 0 0 0 0 0 0 0 0 0 0 0 0 0 127 0" result="hardAlpha"/>
<feOffset dy="6.20247"/>
<feGaussianBlur stdDeviation="3.87654"/>
<feColorMatrix type="matrix" values="0 0 0 0 0.00392157 0 0 0 0 0.0196078 0 0 0 0 0.2 0 0 0 0.08 0"/>
<feBlend mode="normal" in2="BackgroundImageFix" result="effect1_dropShadow_3739_1838"/>
<feBlend mode="normal" in="SourceGraphic" in2="effect1_dropShadow_3739_1838" result="shape"/>
</filter>
<filter id="filter3_d_3739_1838" x="167.575" y="8.17896" width="48.0693" height="48.0693" filterUnits="userSpaceOnUse" color-interpolation-filters="sRGB">
<feFlood flood-opacity="0" result="BackgroundImageFix"/>
<feColorMatrix in="SourceAlpha" type="matrix" values="0 0 0 0 0 0 0 0 0 0 0 0 0 0 0 0 0 0 127 0" result="hardAlpha"/>
<feOffset dy="2.32592"/>
<feGaussianBlur stdDeviation="2.32592"/>
<feColorMatrix type="matrix" values="0 0 0 0 0.00392157 0 0 0 0 0.0196078 0 0 0 0 0.2 0 0 0 0.08 0"/>
<feBlend mode="normal" in2="BackgroundImageFix" result="effect1_dropShadow_3739_1838"/>
<feBlend mode="normal" in="SourceGraphic" in2="effect1_dropShadow_3739_1838" result="shape"/>
</filter>
<filter id="filter4_d_3739_1838" x="264.794" y="3.52946" width="65.1234" height="65.1263" filterUnits="userSpaceOnUse" color-interpolation-filters="sRGB">
<feFlood flood-opacity="0" result="BackgroundImageFix"/>
<feColorMatrix in="SourceAlpha" type="matrix" values="0 0 0 0 0 0 0 0 0 0 0 0 0 0 0 0 0 0 127 0" result="hardAlpha"/>
<feOffset dy="6.20247"/>
<feGaussianBlur stdDeviation="3.87654"/>
<feColorMatrix type="matrix" values="0 0 0 0 0.00392157 0 0 0 0 0.0196078 0 0 0 0 0.2 0 0 0 0.08 0"/>
<feBlend mode="normal" in2="BackgroundImageFix" result="effect1_dropShadow_3739_1838"/>
<feBlend mode="normal" in="SourceGraphic" in2="effect1_dropShadow_3739_1838" result="shape"/>
</filter>
<filter id="filter5_d_3739_1838" x="273.293" y="8.17896" width="48.0693" height="48.0693" filterUnits="userSpaceOnUse" color-interpolation-filters="sRGB">
<feFlood flood-opacity="0" result="BackgroundImageFix"/>
<feColorMatrix in="SourceAlpha" type="matrix" values="0 0 0 0 0 0 0 0 0 0 0 0 0 0 0 0 0 0 127 0" result="hardAlpha"/>
<feOffset dy="2.32592"/>
<feGaussianBlur stdDeviation="2.32592"/>
<feColorMatrix type="matrix" values="0 0 0 0 0.00392157 0 0 0 0 0.0196078 0 0 0 0 0.2 0 0 0 0.08 0"/>
<feBlend mode="normal" in2="BackgroundImageFix" result="effect1_dropShadow_3739_1838"/>
<feBlend mode="normal" in="SourceGraphic" in2="effect1_dropShadow_3739_1838" result="shape"/>
</filter>
<linearGradient id="paint0_linear_3739_1838" x1="61.0278" y1="29.8717" x2="110.685" y2="29.8717" gradientUnits="userSpaceOnUse">
<stop stop-color="#F4B33E"/>
<stop offset="0.3123" stop-color="#F4B33E"/>
<stop offset="0.7592" stop-color="#FDC966"/>
<stop offset="1" stop-color="#F4B33E"/>
</linearGradient>
<linearGradient id="paint1_linear_3739_1838" x1="66.4477" y1="29.8804" x2="105.242" y2="29.8804" gradientUnits="userSpaceOnUse">
<stop stop-color="#F4B33E"/>
<stop offset="0.3123" stop-color="#F4B33E"/>
<stop offset="0.7592" stop-color="#FDC966"/>
<stop offset="1" stop-color="#F4B33E"/>
</linearGradient>
<radialGradient id="paint2_radial_3739_1838" cx="0" cy="0" r="1" gradientUnits="userSpaceOnUse" gradientTransform="translate(85.845 29.8862) scale(17.0484 17.0486)">
<stop stop-color="white" stop-opacity="0"/>
<stop offset="1" stop-color="#571600"/>
</radialGradient>
<linearGradient id="paint3_linear_3739_1838" x1="74.2843" y1="30.4635" x2="97.561" y2="30.4635" gradientUnits="userSpaceOnUse">
<stop stop-color="#AAA87D"/>
<stop offset="0.3123" stop-color="#B57B0E"/>
<stop offset="0.7592" stop-color="#A08042"/>
<stop offset="1" stop-color="#BCAC66"/>
</linearGradient>
<linearGradient id="paint4_linear_3739_1838" x1="39.0748" y1="71.6735" x2="136.774" y2="71.6735" gradientUnits="userSpaceOnUse">
<stop stop-color="#AAA87D"/>
<stop offset="0.3123" stop-color="#F4B33E"/>
<stop offset="0.7592" stop-color="#A08042"/>
<stop offset="1" stop-color="#F4B33E"/>
</linearGradient>
<linearGradient id="paint5_linear_3739_1838" x1="8.15307" y1="45.0172" x2="42.8574" y2="45.0172" gradientUnits="userSpaceOnUse">
<stop stop-color="#F4B33E"/>
<stop offset="0.3123" stop-color="#F4B33E"/>
<stop offset="0.7592" stop-color="#FDC966"/>
<stop offset="1" stop-color="#F4B33E"/>
</linearGradient>
<linearGradient id="paint6_linear_3739_1838" x1="166.778" y1="29.8722" x2="216.435" y2="29.8722" gradientUnits="userSpaceOnUse">
<stop stop-color="#F4B33E"/>
<stop offset="0.3123" stop-color="#F4B33E"/>
<stop offset="0.7592" stop-color="#FDC966"/>
<stop offset="1" stop-color="#F4B33E"/>
</linearGradient>
<linearGradient id="paint7_linear_3739_1838" x1="172.206" y1="29.8814" x2="211" y2="29.8814" gradientUnits="userSpaceOnUse">
<stop stop-color="#F4B33E"/>
<stop offset="0.3123" stop-color="#F4B33E"/>
<stop offset="0.7592" stop-color="#FDC966"/>
<stop offset="1" stop-color="#F4B33E"/>
</linearGradient>
<radialGradient id="paint8_radial_3739_1838" cx="0" cy="0" r="1" gradientUnits="userSpaceOnUse" gradientTransform="translate(191.595 29.8872) scale(17.0484 17.0486)">
<stop stop-color="white" stop-opacity="0"/>
<stop offset="1" stop-color="#571600"/>
</radialGradient>
<linearGradient id="paint9_linear_3739_1838" x1="180.034" y1="30.4635" x2="203.311" y2="30.4635" gradientUnits="userSpaceOnUse">
<stop stop-color="#AAA87D"/>
<stop offset="0.3123" stop-color="#B57B0E"/>
<stop offset="0.7592" stop-color="#A08042"/>
<stop offset="1" stop-color="#BCAC66"/>
</linearGradient>
<linearGradient id="paint10_linear_3739_1838" x1="132.692" y1="71.673" x2="254.462" y2="71.673" gradientUnits="userSpaceOnUse">
<stop stop-color="#AAA87D"/>
<stop offset="0.3123" stop-color="#F4B33E"/>
<stop offset="0.7592" stop-color="#A08042"/>
<stop offset="1" stop-color="#F4B33E"/>
</linearGradient>
<linearGradient id="paint11_linear_3739_1838" x1="272.497" y1="29.8727" x2="322.154" y2="29.8727" gradientUnits="userSpaceOnUse">
<stop stop-color="#F4B33E"/>
<stop offset="0.3123" stop-color="#F4B33E"/>
<stop offset="0.7592" stop-color="#FDC966"/>
<stop offset="1" stop-color="#F4B33E"/>
</linearGradient>
<linearGradient id="paint12_linear_3739_1838" x1="277.924" y1="29.8814" x2="316.719" y2="29.8814" gradientUnits="userSpaceOnUse">
<stop stop-color="#F4B33E"/>
<stop offset="0.3123" stop-color="#F4B33E"/>
<stop offset="0.7592" stop-color="#FDC966"/>
<stop offset="1" stop-color="#F4B33E"/>
</linearGradient>
<radialGradient id="paint13_radial_3739_1838" cx="0" cy="0" r="1" gradientUnits="userSpaceOnUse" gradientTransform="translate(297.322 29.8872) scale(17.0484 17.0486)">
<stop stop-color="white" stop-opacity="0"/>
<stop offset="1" stop-color="#571600"/>
</radialGradient>
<linearGradient id="paint14_linear_3739_1838" x1="285.745" y1="30.4635" x2="309.022" y2="30.4635" gradientUnits="userSpaceOnUse">
<stop stop-color="#AAA87D"/>
<stop offset="0.3123" stop-color="#B57B0E"/>
<stop offset="0.7592" stop-color="#A08042"/>
<stop offset="1" stop-color="#BCAC66"/>
</linearGradient>
<linearGradient id="paint15_linear_3739_1838" x1="252.945" y1="71.6735" x2="344.981" y2="71.6735" gradientUnits="userSpaceOnUse">
<stop stop-color="#AAA87D"/>
<stop offset="0.3123" stop-color="#F4B33E"/>
<stop offset="0.7592" stop-color="#A08042"/>
<stop offset="1" stop-color="#F4B33E"/>
</linearGradient>
<linearGradient id="paint16_linear_3739_1838" x1="378.808" y1="45.0172" x2="344.104" y2="45.0172" gradientUnits="userSpaceOnUse">
<stop stop-color="#F4B33E"/>
<stop offset="0.3123" stop-color="#F4B33E"/>
<stop offset="0.7592" stop-color="#FDC966"/>
<stop offset="1" stop-color="#F4B33E"/>
</linearGradient>
<clipPath id="clip0_3739_1838">
<rect width="382.113" height="86.8834" fill="white" transform="matrix(1 0 0 -1 0 87.8799)"/>
</clipPath>
</defs>
</svg>
