<svg width="284" height="285" viewBox="0 0 284 285" fill="none" xmlns="http://www.w3.org/2000/svg">
<path d="M-105.785 -56.6853L-37.1322 -2.96555L-29.501 1.94337C-3.12183 18.9124 31.865 1.95109 34.8823 -29.2692L35.7828 -38.5862C37.5119 -56.4774 53.4173 -69.5793 71.3085 -67.8502C94.0243 -65.6548 107.485 -41.3697 97.3086 -20.9426L89.5842 -5.43779C71.8919 30.0755 106.049 69.2197 143.631 56.501L238.371 24.4393C256.655 18.2516 276.409 28.5533 281.8 47.0878C287.091 65.2778 276.453 84.2751 258.179 89.2687L154.467 117.61C116.513 127.982 94.3518 167.37 105.191 205.194L113.473 234.099C119.451 254.959 107.662 276.772 86.936 283.2C67.5143 289.223 46.6696 279.678 38.5418 261.039L26.6829 233.843C6.27748 187.048 -54.6133 175.087 -91.2041 210.686L-128.562 247.031C-144.336 262.377 -168.883 264.097 -186.642 251.1C-210.622 233.55 -211.37 198.01 -188.149 179.467L-155.077 153.058C-118.988 124.24 -115.975 70.4451 -148.621 37.7774L-170.266 16.1172C-180.55 5.82586 -185.696 -8.52341 -184.297 -23.0051C-180.597 -61.2879 -136.075 -80.3869 -105.785 -56.6853Z" fill="#C07C47"/>
</svg>
