<svg width="263" height="284" viewBox="0 0 263 284" fill="none" xmlns="http://www.w3.org/2000/svg">
<path d="M242.936 257.376L214.993 189.042L211.441 182.227C199.162 158.671 166.308 156.458 150.981 178.155L146.407 184.63C137.624 197.063 120.425 200.022 107.991 191.239C92.2049 180.088 92.4998 156.574 108.561 145.822L120.752 137.661C148.674 118.967 139.985 75.8358 107.003 69.4124L23.8584 53.2201C7.81217 50.0951 -2.39243 34.2247 1.42336 18.3285C5.16821 2.72785 20.9687 -6.77886 36.5062 -2.77988L124.687 19.9158C156.959 28.2216 189.795 8.5541 197.702 -23.817L203.745 -48.5544C208.106 -66.4072 225.935 -77.5018 243.878 -73.5285C260.692 -69.8052 272.017 -54.0331 270.17 -36.9111L267.475 -11.9293C262.837 31.0567 302.603 65.4184 344.462 54.5964L387.198 43.5475C405.243 38.8822 424.02 47.9229 431.626 64.9386C441.896 87.9141 427.525 114.369 402.661 118.259L367.248 123.799C328.605 129.844 303.804 168.147 314.101 205.88L320.928 230.899C324.172 242.786 321.933 255.501 314.823 265.565C296.03 292.17 255.265 287.526 242.936 257.376Z" fill="#C07C47"/>
</svg>
