<svg width="26" height="26" viewBox="0 0 26 26" fill="none" xmlns="http://www.w3.org/2000/svg">
<path fill-rule="evenodd" clip-rule="evenodd" d="M3.77158 3.75855C8.83202 -1.29476 17.0582 -1.24103 22.1496 3.85037C27.2432 8.94396 27.2948 17.175 22.2349 22.2349C17.175 27.2948 8.9439 27.2432 3.85032 22.1496C0.831849 19.1312 -0.414616 15.0132 0.120627 11.1083C0.195627 10.5611 0.699994 10.1784 1.24716 10.2534C1.79433 10.3284 2.1771 10.8327 2.1021 11.3799C1.6488 14.687 2.70376 18.1747 5.26453 20.7354C9.5905 25.0614 16.5552 25.0862 20.8207 20.8207C25.0861 16.5552 25.0614 9.59056 20.7354 5.26458C16.4116 0.94082 9.45185 0.913853 5.1858 5.17276L6.18273 5.17777C6.73501 5.18055 7.18047 5.63051 7.17769 6.18278C7.17492 6.73506 6.72496 7.18052 6.17268 7.17775L2.77861 7.16069C2.23026 7.15793 1.78641 6.71408 1.78365 6.16573L1.76659 2.77166C1.76382 2.21938 2.20928 1.76942 2.76156 1.76665C3.31383 1.76387 3.76379 2.20933 3.76657 2.76161L3.77158 3.75855ZM12.9998 6.66656C13.5521 6.66656 13.9998 7.11427 13.9998 7.66656V12.5857L17.0403 15.6261C17.4308 16.0166 17.4308 16.6498 17.0403 17.0403C16.6498 17.4309 16.0166 17.4309 15.6261 17.0403L11.9998 13.4141V7.66656C11.9998 7.11427 12.4476 6.66656 12.9998 6.66656Z" fill="#282828"/>
</svg>
