<svg viewBox="0 0 44 44" fill="none" xmlns="http://www.w3.org/2000/svg">
<path fill-rule="evenodd" clip-rule="evenodd" d="M21.8961 2.29175H22.1065C26.3385 2.29172 29.6551 2.29171 32.2428 2.63962C34.8915 2.99572 36.9816 3.73885 38.6221 5.37933C40.2625 7.01982 41.0057 9.10986 41.3618 11.7585C41.7097 14.3463 41.7097 17.6628 41.7096 21.8949V22.1053C41.7097 26.3373 41.7097 29.6539 41.3618 32.2416C41.0057 34.8903 40.2625 36.9803 38.6221 38.6208C36.9816 40.2613 34.8915 41.0044 32.2428 41.3605C29.6551 41.7085 26.3385 41.7084 22.1065 41.7084H21.8961C17.6641 41.7084 14.3475 41.7085 11.7598 41.3605C9.11108 41.0044 7.02104 40.2613 5.38055 38.6208C3.74007 36.9803 2.99694 34.8903 2.64084 32.2416C2.29293 29.6539 2.29295 26.3373 2.29297 22.1053V21.8949C2.29295 17.6628 2.29293 14.3463 2.64084 11.7585C2.99694 9.10986 3.74007 7.01982 5.38055 5.37933C7.02104 3.73885 9.11108 2.99572 11.7598 2.63962C14.3475 2.29171 17.6641 2.29172 21.8961 2.29175ZM12.1262 5.36509C9.78245 5.6802 8.36947 6.27951 7.3251 7.32387C6.28073 8.36824 5.68142 9.78123 5.36631 12.125C5.04589 14.5083 5.04297 17.64 5.04297 22.0001C5.04297 26.3602 5.04589 29.4919 5.36631 31.8752C5.68142 34.2189 6.28073 35.6319 7.3251 36.6763C8.36947 37.7207 9.78245 38.32 12.1262 38.6351C14.5095 38.9555 17.6412 38.9584 22.0013 38.9584C26.3614 38.9584 29.4931 38.9555 31.8764 38.6351C34.2201 38.32 35.6331 37.7207 36.6775 36.6763C37.7219 35.6319 38.3212 34.2189 38.6363 31.8752C38.9567 29.4919 38.9596 26.3602 38.9596 22.0001C38.9596 17.64 38.9567 14.5083 38.6363 12.125C38.3212 9.78123 37.7219 8.36824 36.6775 7.32387C35.6331 6.27951 34.2201 5.6802 31.8764 5.36509C29.4931 5.04467 26.3614 5.04175 22.0013 5.04175C17.6412 5.04175 14.5095 5.04467 12.1262 5.36509ZM22.8926 11.5447C23.9684 10.9109 25.3629 10.9141 26.5118 11.8047C29.3691 14.0197 32.543 17.8491 32.543 23.2223C32.543 27.5816 30.6958 30.4388 28.3047 32.1604C25.9837 33.8315 23.2399 34.3751 21.3902 34.3751C19.7036 34.3751 17.2392 33.8095 15.1693 32.1063C13.0431 30.3568 11.4596 27.5091 11.4596 23.2223C11.4596 19.2259 13.7654 16.6855 15.6599 15.4275C16.3596 14.9628 17.2464 14.8164 18.046 15.1278C18.895 15.4584 19.4689 16.2437 19.5214 17.2167C19.5391 17.5459 19.6162 17.8503 19.7236 18.0953C19.775 18.2125 19.8282 18.3048 19.8767 18.3753C20.7398 17.1791 21.1655 15.5448 21.1655 14.6667C21.1655 13.3262 21.8501 12.1588 22.8926 11.5447ZM24.2884 13.9141C24.1094 14.0195 23.9155 14.2715 23.9155 14.6667C23.9155 16.1313 23.2966 18.3826 22.043 20.0716C21.6059 20.6606 20.9963 21.1391 20.2156 21.2492C19.4302 21.3601 18.7533 21.0585 18.2707 20.6617C17.5002 20.0283 17.0152 19.0108 16.8407 17.9596C15.5525 18.9314 14.2096 20.643 14.2096 23.2223C14.2096 26.7577 15.478 28.799 16.9166 29.9828C18.4116 31.2129 20.225 31.6251 21.3902 31.6251C22.7998 31.6251 24.9448 31.1909 26.6979 29.9287C28.3809 28.7169 29.793 26.6853 29.793 23.2223C29.793 19.0225 27.3175 15.9089 24.827 13.9782C24.6942 13.8752 24.593 13.8526 24.5287 13.8492C24.4587 13.8454 24.3767 13.8621 24.2884 13.9141Z" fill="white"/>
</svg>
