<svg viewBox="0 0 44 44" fill="none" xmlns="http://www.w3.org/2000/svg">
<path fill-rule="evenodd" clip-rule="evenodd" d="M16.8798 5.83359C16.4176 5.98002 15.9611 6.14646 15.5116 6.33262C13.4542 7.18486 11.5847 8.434 10.01 10.0087C8.43522 11.5835 7.18608 13.4529 6.33385 15.5104C5.6575 17.1432 5.24165 18.8691 5.0988 20.6251H13.313C13.3717 18.6159 13.5588 16.6359 13.8697 14.7595C14.2509 12.4586 14.8141 10.3385 15.5392 8.52579C15.9351 7.53612 16.3823 6.63017 16.8798 5.83359ZM22.0013 2.29175C19.4132 2.29175 16.8504 2.80152 14.4593 3.79195C12.0681 4.78239 9.8955 6.2341 8.06541 8.06418C6.23532 9.89427 4.78361 12.0669 3.79318 14.458C2.80274 16.8492 2.29297 19.4119 2.29297 22.0001C2.29297 24.5882 2.80274 27.151 3.79318 29.5421C4.78361 31.9333 6.23532 34.1059 8.0654 35.936C9.89549 37.7661 12.0681 39.2178 14.4592 40.2082C16.8504 41.1986 19.4132 41.7084 22.0013 41.7084C24.5894 41.7084 27.1522 41.1986 29.5434 40.2082C31.9345 39.2178 34.1071 37.7661 35.9372 35.936C37.7673 34.1059 39.219 31.9333 40.2094 29.5421C41.1999 27.151 41.7096 24.5882 41.7096 22.0001C41.7096 19.4119 41.1999 16.8492 40.2094 14.458C39.219 12.0669 37.7673 9.89428 35.9372 8.06419C34.1071 6.2341 31.9345 4.78239 29.5434 3.79196C27.1522 2.80152 24.5894 2.29175 22.0013 2.29175ZM22.0013 5.04175C21.5223 5.04175 20.9036 5.27236 20.1841 6.01744C19.4592 6.76802 18.7336 7.94439 18.0925 9.54712C17.4557 11.1392 16.9385 13.0612 16.5827 15.209C16.2972 16.9322 16.1221 18.7608 16.0643 20.6251L27.9383 20.6251C27.8805 18.7608 27.7054 16.9322 27.4199 15.209C27.0641 13.0612 26.5469 11.1392 25.9101 9.54712C25.269 7.94439 24.5434 6.76803 23.8186 6.01744C23.099 5.27237 22.4803 5.04175 22.0013 5.04175ZM30.6896 20.6251C30.6309 18.6159 30.4438 16.6359 30.1329 14.7595C29.7517 12.4587 29.1885 10.3385 28.4634 8.5258C28.0675 7.53612 27.6203 6.63017 27.1228 5.83359C27.585 5.98002 28.0415 6.14646 28.491 6.33263C30.5485 7.18486 32.4179 8.434 33.9927 10.0087C35.5674 11.5835 36.8165 13.4529 37.6688 15.5104C38.3451 17.1432 38.761 18.8691 38.9038 20.6251H30.6896ZM27.9383 23.3751L16.0643 23.3751C16.1221 25.2393 16.2972 27.068 16.5827 28.7912C16.9385 30.939 17.4557 32.8609 18.0925 34.453C18.7336 36.0558 19.4592 37.2321 20.184 37.9827C20.9036 38.7278 21.5223 38.9584 22.0013 38.9584C22.4803 38.9584 23.099 38.7278 23.8186 37.9827C24.5434 37.2321 25.269 36.0558 25.9101 34.453C26.5469 32.8609 27.0641 30.939 27.4199 28.7912C27.7054 27.068 27.8805 25.2393 27.9383 23.3751ZM27.1228 38.1666C27.6203 37.37 28.0675 36.464 28.4634 35.4744C29.1885 33.6617 29.7517 31.5415 30.1329 29.2407C30.4438 27.3642 30.6309 25.3842 30.6896 23.3751H38.9038C38.761 25.1311 38.3451 26.8569 37.6688 28.4898C36.8165 30.5472 35.5674 32.4167 33.9927 33.9914C32.4179 35.5662 30.5485 36.8153 28.491 37.6675C28.0415 37.8537 27.585 38.0201 27.1228 38.1666ZM16.8798 38.1666C16.3823 37.37 15.9351 36.464 15.5392 35.4744C14.8141 33.6617 14.2509 31.5415 13.8697 29.2407C13.5588 27.3642 13.3717 25.3842 13.313 23.3751H5.0988C5.24165 25.131 5.6575 26.8569 6.33384 28.4898C7.18608 30.5472 8.43522 32.4167 10.0099 33.9914C11.5847 35.5662 13.4541 36.8153 15.5116 37.6675C15.9611 37.8537 16.4176 38.0201 16.8798 38.1666Z" fill="white"/>
</svg>
