<svg  viewBox="0 0 44 44" fill="none" xmlns="http://www.w3.org/2000/svg">
<path d="M25.2096 18.3334C25.2096 19.0928 25.8252 19.7084 26.5846 19.7084H27.8484L24.1587 23.3981C23.9797 23.5771 23.6895 23.5771 23.5105 23.3981L20.6033 20.4908C19.3503 19.2379 17.3189 19.2379 16.066 20.4908L11.8624 24.6945C11.3254 25.2314 11.3254 26.102 11.8624 26.639C12.3993 27.176 13.2699 27.176 13.8069 26.639L18.0105 22.4354C18.1895 22.2564 18.4797 22.2564 18.6587 22.4354L21.566 25.3427C22.8189 26.5956 24.8503 26.5956 26.1033 25.3427L29.793 21.653V22.9167C29.793 23.6761 30.4086 24.2917 31.168 24.2917C31.9274 24.2917 32.543 23.6761 32.543 22.9167V18.3334C32.543 17.574 31.9274 16.9584 31.168 16.9584H26.5846C25.8252 16.9584 25.2096 17.574 25.2096 18.3334Z" fill="white"/>
<path fill-rule="evenodd" clip-rule="evenodd" d="M21.8961 2.29175C17.6641 2.29172 14.3475 2.29171 11.7598 2.63962C9.11108 2.99572 7.02104 3.73885 5.38055 5.37933C3.74007 7.01982 2.99694 9.10986 2.64084 11.7585C2.29293 14.3463 2.29295 17.6628 2.29297 21.8949V22.1053C2.29295 26.3373 2.29293 29.6539 2.64084 32.2416C2.99694 34.8903 3.74007 36.9803 5.38055 38.6208C7.02104 40.2613 9.11108 41.0044 11.7598 41.3605C14.3475 41.7085 17.6641 41.7084 21.8961 41.7084H22.1065C26.3385 41.7084 29.6551 41.7085 32.2428 41.3605C34.8915 41.0044 36.9816 40.2613 38.6221 38.6208C40.2625 36.9803 41.0057 34.8903 41.3618 32.2416C41.7097 29.6539 41.7097 26.3373 41.7096 22.1053V21.8949C41.7097 17.6628 41.7097 14.3463 41.3618 11.7585C41.0057 9.10986 40.2625 7.01982 38.6221 5.37933C36.9816 3.73885 34.8915 2.99572 32.2428 2.63962C29.6551 2.29171 26.3385 2.29172 22.1065 2.29175H21.8961ZM7.3251 7.32387C8.36947 6.27951 9.78245 5.6802 12.1262 5.36509C14.5095 5.04467 17.6412 5.04175 22.0013 5.04175C26.3614 5.04175 29.4931 5.04467 31.8764 5.36509C34.2201 5.6802 35.6331 6.27951 36.6775 7.32387C37.7219 8.36824 38.3212 9.78123 38.6363 12.125C38.9567 14.5083 38.9596 17.64 38.9596 22.0001C38.9596 26.3602 38.9567 29.4919 38.6363 31.8752C38.3212 34.2189 37.7219 35.6319 36.6775 36.6763C35.6331 37.7207 34.2201 38.32 31.8764 38.6351C29.4931 38.9555 26.3614 38.9584 22.0013 38.9584C17.6412 38.9584 14.5095 38.9555 12.1262 38.6351C9.78245 38.32 8.36947 37.7207 7.3251 36.6763C6.28073 35.6319 5.68142 34.2189 5.36632 31.8752C5.04589 29.4919 5.04297 26.3602 5.04297 22.0001C5.04297 17.64 5.04589 14.5083 5.36632 12.125C5.68142 9.78123 6.28073 8.36824 7.3251 7.32387Z" fill="white"/>
</svg>
