<svg viewBox="0 0 44 44" fill="none" xmlns="http://www.w3.org/2000/svg">
<path d="M14.5674 9.625C12.0601 9.62496 10.0392 9.62494 8.44976 9.83863C6.79956 10.0605 5.41013 10.5351 4.30661 11.6386C3.2031 12.7422 2.72846 14.1316 2.5066 15.7818C2.2929 17.3712 2.29293 19.3921 2.29297 21.8994V22.1006C2.29293 24.6078 2.2929 26.6288 2.5066 28.2182C2.72846 29.8684 3.2031 31.2579 4.30661 32.3614C5.41013 33.4649 6.79956 33.9395 8.44976 34.1614C10.0392 34.3751 12.0601 34.375 14.5674 34.375H14.668C15.4274 34.375 16.043 33.7594 16.043 33C16.043 32.2406 15.4274 31.625 14.668 31.625C12.0364 31.625 10.201 31.6221 8.81619 31.4359C7.47094 31.255 6.75855 30.9242 6.25116 30.4168C5.74376 29.9094 5.41294 29.197 5.23207 27.8518C5.04589 26.467 5.04297 24.6316 5.04297 22C5.04297 19.3684 5.04589 17.533 5.23207 16.1482C5.41294 14.803 5.74376 14.0906 6.25116 13.5832C6.75855 13.0758 7.47094 12.745 8.81619 12.5641C10.201 12.3779 12.0364 12.375 14.668 12.375C17.2996 12.375 19.1349 12.3779 20.5198 12.5641C21.865 12.745 22.5774 13.0758 23.0848 13.5832C23.5922 14.0906 23.923 14.803 24.1039 16.1482C24.2901 17.533 24.293 19.3684 24.293 22C24.293 22.7594 24.9086 23.375 25.668 23.375C26.4274 23.375 27.043 22.7594 27.043 22V21.8994C27.043 19.3922 27.043 17.3712 26.8293 15.7818C26.6075 14.1316 26.1328 12.7422 25.0293 11.6386C23.9258 10.5351 22.5364 10.0605 20.8862 9.83863C19.2968 9.62494 17.2758 9.62496 14.7686 9.625H14.5674Z" fill="white"/>
<path d="M29.3346 12.375C31.9662 12.375 33.8016 12.3779 35.1864 12.5641C36.5317 12.745 37.2441 13.0758 37.7515 13.5832C38.2589 14.0906 38.5897 14.803 38.7705 16.1482C38.9567 17.533 38.9596 19.3684 38.9596 22C38.9596 24.6316 38.9567 26.467 38.7705 27.8518C38.5897 29.197 38.2589 29.9094 37.7515 30.4168C37.2441 30.9242 36.5317 31.255 35.1864 31.4359C33.8016 31.6221 31.9662 31.625 29.3346 31.625C26.703 31.625 24.8677 31.6221 23.4829 31.4359C22.1376 31.255 21.4252 30.9242 20.9178 30.4168C20.4104 29.9094 20.0796 29.197 19.8987 27.8518C19.7126 26.467 19.7096 24.6316 19.7096 22C19.7096 21.2406 19.094 20.625 18.3346 20.625C17.5752 20.625 16.9596 21.2406 16.9596 22L16.9596 22.1006C16.9596 24.6078 16.9596 26.6288 17.1733 28.2182C17.3951 29.8684 17.8698 31.2579 18.9733 32.3614C20.0768 33.4649 21.4662 33.9395 23.1164 34.1614C24.7059 34.3751 26.7268 34.375 29.234 34.375H29.4352C31.9425 34.375 33.9634 34.3751 35.5528 34.1614C37.203 33.9395 38.5925 33.4649 39.696 32.3614C40.7995 31.2579 41.2741 29.8684 41.496 28.2182C41.7097 26.6288 41.7097 24.6078 41.7096 22.1006V21.8994C41.7097 19.3922 41.7097 17.3712 41.496 15.7818C41.2741 14.1316 40.7995 12.7422 39.696 11.6386C38.5925 10.5351 37.203 10.0605 35.5528 9.83863C33.9634 9.62494 31.9425 9.62496 29.4353 9.625H29.3346C28.5752 9.625 27.9596 10.2406 27.9596 11C27.9596 11.7594 28.5752 12.375 29.3346 12.375Z" fill="white"/>
</svg>
