<svg viewBox="0 0 44 44" fill="none" xmlns="http://www.w3.org/2000/svg">
<path fill-rule="evenodd" clip-rule="evenodd" d="M18.6195 5.95331C17.6674 6.6798 16.5491 7.79394 14.9304 9.41263C13.3117 11.0313 12.1976 12.1496 11.4711 13.1018C10.7688 14.0222 10.5595 14.6241 10.5595 15.1913C10.5595 15.7584 10.7688 16.3603 11.4711 17.2807C12.1976 18.2329 13.3117 19.3512 14.9304 20.9699L23.0315 29.071C24.6502 30.6897 25.7684 31.8038 26.7206 32.5303C27.6411 33.2326 28.243 33.4419 28.8101 33.4419C29.3773 33.4419 29.9792 33.2326 30.8996 32.5303C31.8518 31.8038 32.9701 30.6897 34.5888 29.071C36.2074 27.4523 37.3216 26.334 38.0481 25.3818C38.7504 24.4614 38.9596 23.8595 38.9596 23.2923C38.9596 22.7252 38.7504 22.1233 38.0481 21.2029C37.3216 20.2507 36.2074 19.1324 34.5888 17.5137L26.4877 9.41263C24.869 7.79394 23.7507 6.6798 22.7985 5.95331C21.8781 5.25102 21.2762 5.04175 20.709 5.04175C20.1419 5.04175 19.54 5.25102 18.6195 5.95331ZM16.9514 3.767C18.1165 2.87808 19.2989 2.29175 20.709 2.29175C22.1192 2.29175 23.3015 2.87808 24.4666 3.767C25.583 4.61878 26.8306 5.8664 28.3623 7.39813L28.8101 7.84593C29.2479 7.40997 29.6375 7.0418 30.066 6.7944C31.3776 6.03715 32.9936 6.03715 34.3052 6.7944C34.7933 7.07624 35.231 7.51482 35.747 8.03179C35.7836 8.06853 35.8207 8.10567 35.8582 8.14318C35.8957 8.18067 35.9328 8.21773 35.9696 8.25439C36.4865 8.77035 36.9251 9.20807 37.207 9.69623C37.9642 11.0078 37.9642 12.6238 37.207 13.9354C36.9596 14.3639 36.5914 14.7535 36.1555 15.1913L36.6033 15.6392C38.135 17.1708 39.3826 18.4184 40.2344 19.5348C41.1233 20.6998 41.7096 21.8822 41.7096 23.2923C41.7096 24.7025 41.1233 25.8849 40.2344 27.0499C39.3826 28.1663 38.135 29.4139 36.6033 30.9455L36.4633 31.0855C34.9317 32.6172 33.6841 33.8648 32.5677 34.7166C31.4026 35.6055 30.2203 36.1919 28.8101 36.1919C27.4 36.1919 26.2176 35.6055 25.0525 34.7166C23.9361 33.8648 22.6886 32.6172 21.1569 31.0855L20.709 30.6376L11.5549 39.7917C11.5174 39.8292 11.4804 39.8663 11.4437 39.9031C10.9278 40.4201 10.49 40.8586 10.0019 41.1405C8.69029 41.8977 7.07433 41.8977 5.76273 41.1405C5.27458 40.8586 4.83685 40.42 4.3209 39.9031C4.28424 39.8663 4.24718 39.8292 4.20968 39.7917C4.17218 39.7542 4.13504 39.7171 4.0983 39.6805C3.58133 39.1645 3.14274 38.7268 2.86091 38.2386C2.10366 36.927 2.10366 35.3111 2.86091 33.9995C3.14274 33.5113 3.58132 33.0736 4.09828 32.5577C4.13503 32.521 4.17217 32.4839 4.20968 32.4464L13.3638 23.2923L12.9159 22.8445C11.3842 21.3128 10.1365 20.0652 9.28477 18.9488C8.39585 17.7838 7.80952 16.6014 7.80952 15.1913C7.80952 13.7811 8.39585 12.5988 9.28477 11.4337C10.1365 10.3173 11.3842 9.06971 12.9159 7.53803L13.0558 7.39812C14.5875 5.86639 15.8351 4.61877 16.9514 3.767ZM15.3083 25.2369L6.15423 34.391C5.46382 35.0814 5.31769 35.2442 5.24248 35.3745C4.97647 35.8352 4.97647 36.4029 5.24248 36.8636C5.31769 36.9939 5.46381 37.1567 6.15423 37.8472C6.84463 38.5376 7.00746 38.6837 7.13773 38.7589C7.59848 39.0249 8.16615 39.0249 8.6269 38.7589C8.75717 38.6837 8.91999 38.5376 9.61041 37.8472L18.7645 28.6931L15.3083 25.2369ZM34.2101 13.246C34.6499 12.8012 34.7625 12.6694 34.8254 12.5604C35.0914 12.0996 35.0914 11.532 34.8254 11.0712C34.7502 10.941 34.6041 10.7781 33.9137 10.0877C33.2233 9.39731 33.0604 9.25118 32.9302 9.17597C32.4694 8.90996 31.9017 8.90996 31.441 9.17597C31.332 9.23892 31.2001 9.35153 30.7554 9.79125L34.2101 13.246Z" fill="white"/>
</svg>
